<svg width="52" height="35" viewBox="0 0 52 35" fill="none" xmlns="http://www.w3.org/2000/svg">
<path d="M34.6628 0.00245864C31.6208 -0.00182975 28.6318 0.794244 25.999 2.30992C28.6347 3.82238 30.8233 5.99888 32.3442 8.62026C33.8652 11.2416 34.6649 14.2153 34.6628 17.2419H17.3352C17.3352 20.6518 18.3519 23.985 20.2566 26.8202C22.1613 29.6553 24.8685 31.8649 28.0359 33.1696C31.2032 34.4743 34.6885 34.8154 38.0507 34.1498C41.413 33.4842 44.5014 31.8419 46.9251 29.4304C49.3489 27.0189 50.9993 23.9467 51.6675 20.6023C52.3358 17.2578 51.9919 13.7914 50.6793 10.6414C49.3667 7.49136 47.1444 4.79925 44.2935 2.90552C41.4426 1.0118 38.0911 0.00151955 34.6628 0.00245864Z" fill="#515151"/>
<path d="M25.9989 2.30984C28.6346 3.82229 30.8232 5.9988 32.3441 8.62017C33.8651 11.2416 34.6648 14.2153 34.6627 17.2418H17.3351C17.3339 20.2676 18.134 23.2404 19.6549 25.8608C21.1758 28.4813 23.3639 30.6571 25.9989 32.1691C23.3641 33.6823 20.3752 34.4789 17.3327 34.4789C14.2902 34.479 11.3013 33.6824 8.66636 32.1694C6.03146 30.6563 3.84341 28.48 2.32215 25.8593C0.800883 23.2385 0 20.2657 0 17.2395C0 14.2133 0.800883 11.2404 2.32215 8.61966C3.84341 5.99891 6.03146 3.82263 8.66636 2.30956C11.3013 0.796493 14.2902 -4.7804e-05 17.3327 2.15177e-09C20.3752 4.78083e-05 23.3641 0.796685 25.9989 2.30984Z" fill="#559268"/>
</svg>
