<svg width="66" height="32" viewBox="0 0 66 32" fill="none" xmlns="http://www.w3.org/2000/svg">
<path fill-rule="evenodd" clip-rule="evenodd" d="M23.1434 15.7445C25.6403 12.3024 28.0695 8.94573 30.5088 5.59555C31.419 4.34579 32.277 3.04695 33.2947 1.88918C34.6093 0.393521 36.0402 0.595429 37.3724 1.59115C40.9631 4.27589 41.3597 8.04902 41.4204 12.0304C41.4355 13.0384 41.5566 14.046 41.6509 15.0526C41.7841 16.4765 41.9074 16.5336 43.1989 15.7826C45.4615 14.4667 47.0467 12.4263 48.7638 10.5326C51.1303 7.92128 53.2753 5.10999 55.8104 2.65158C56.8471 1.64624 58.6304 1.2904 59.3876 1.96807C60.1703 2.66746 60.8774 3.46679 61.5352 4.2887C63.3429 6.54838 63.7819 9.28104 64.0409 12.042C64.514 17.0852 65.1602 22.1169 65.1417 27.196C65.1391 27.8685 65.318 28.6149 64.8984 29.1704C64.487 29.7161 63.9021 30.7115 63.3032 29.2535C63.2086 29.0237 63.0933 28.8268 62.8067 28.7981C60.8793 28.6064 60.7597 27.0871 60.5274 25.6666C59.8471 21.5159 59.182 17.3619 58.4961 13.2118C58.4296 12.8095 58.5348 12.2062 57.9994 12.1249C57.6161 12.0666 57.4568 12.6131 57.1846 12.8758C55.2067 14.784 53.9122 17.239 52.0701 19.2557C51.0573 20.3647 50.0196 21.4424 48.7677 22.2903C47.9638 22.8338 47.1824 23.3815 46.109 23.1399C45.8045 23.0714 45.3812 23.1343 45.1269 23.3063C43.6069 24.3344 42.5046 23.2534 41.318 22.6065C38.0501 20.8247 36.1764 18.0462 35.4816 14.4244C35.4574 14.2981 35.3298 14.1907 35.1785 13.9694C34.529 14.7378 33.8046 15.2778 33.2518 16.1666C31.2731 19.3517 29.3563 22.5928 26.755 25.3584C25.7284 26.4495 24.4785 26.8366 23.1566 26.7944C22.0185 26.7577 21.378 25.5029 20.2403 25.1383C18.0301 24.4309 17.3918 22.4416 16.9118 20.4369C16.6884 19.5024 16.5756 18.5411 16.4108 17.5811C14.5314 18.3194 13.8646 20.1596 12.8021 21.5406C11.2179 23.5993 9.45431 25.4607 7.65836 27.3085C6.50647 28.4942 5.63132 29.9216 4.11375 30.7941C2.85924 31.515 2.04212 30.5677 1.24384 30.1651C0.692204 29.8875 0.478024 28.7963 1.2626 27.9264C6.74143 21.8534 10.9507 14.9242 14.7358 7.71505C15.4697 6.31722 16.8453 5.49653 17.7131 6.01968C18.5535 6.52554 19.3135 7.19635 20.0228 7.88337C21.7881 9.59262 22.371 11.8278 22.6876 14.1687C22.7509 14.6338 22.6261 15.1462 23.1434 15.7445Z" fill="#559268"/>
</svg>
