<svg width="137" height="32" viewBox="0 0 137 32" fill="none" xmlns="http://www.w3.org/2000/svg">
<path d="M123.258 21.7529C118.115 22.1899 114.868 21.4033 111.419 20.7095C106.786 23.9052 102.055 26.4454 95.6728 26.7185C91.9378 26.8933 86.135 25.2709 84.0077 24.0527C82.3838 24.9213 76.5377 26.3853 74.0639 27.1829C68.4884 28.9801 61.6517 27.5871 55.443 26.2542C49.0285 29.0566 41.0767 31.0123 32.5132 28.8654C27.7985 30.1437 23.717 32.9024 16.7612 31.706C10.1356 30.8375 3.49381 27.9968 0.749387 21.0591C-0.333225 18.2786 -0.457725 12.1767 1.832 10.6799C2.08646 10.5141 2.37903 10.4174 2.68139 10.3991C2.98375 10.3809 3.28566 10.4417 3.55788 10.5758C3.83009 10.7099 4.0634 10.9126 4.2352 11.1643C4.40701 11.4161 4.51148 11.7083 4.53853 12.0128C6.11373 27.0026 13.4376 29.9252 29.0218 26.216C21.9848 10.2593 39.8479 6.61557 40.1727 19.1144C40.2269 21.4361 38.5488 24.4515 37.1847 25.8445C42.0565 26.3088 49.7105 26.3362 53.4239 22.5668C48.655 7.27111 70.3235 8.99188 60.7045 23.6594C65.2081 27.1392 77.604 23.3371 80.8952 21.223C79.6339 19.4804 77.8531 15.651 79.4228 11.6413C82.8601 2.84627 93.4156 7.54971 91.7646 15.8094C91.3586 17.8579 89.8646 20.0048 88.2515 21.742C92.1056 24.7028 105.839 22.6707 107.197 17.7378C105.243 15.8258 102.775 11.1497 103.646 7.35853C104.729 3.0211 109.39 -1.92817 113.752 0.764972C119.166 4.10272 118.115 11.3573 115.414 16.8091C124.898 18.661 128.687 13.6953 132.514 6.47357C132.787 5.93124 133.25 5.5107 133.814 5.29366C134.377 5.07661 135 5.07854 135.562 5.29906C140.298 7.37491 132.595 20.2725 123.258 21.7529ZM110.672 14.8534C114.694 11.5758 115.988 4.33216 110.959 4.1792C105.714 4.02078 107.111 13.2255 110.672 14.8534ZM35.6745 15.7821C32.1885 12.6301 28.4318 21.1138 33.087 24.4788C35.9018 23.4354 38.5434 17.8689 35.6745 15.7821ZM84.982 18.9123C87.5099 17.9836 90.6657 11.0732 85.7886 10.3849C81.247 9.73482 81.3066 16.5906 84.982 18.9123ZM58.8911 14.7333C55.4809 12.9743 55.3834 18.5572 57.1102 21.1137C59.6381 19.6661 62.6261 16.9948 58.8749 14.7333H58.8911Z" fill="#559268"/>
</svg>
