<svg width="54" height="58" viewBox="0 0 54 58" fill="none" xmlns="http://www.w3.org/2000/svg">
<path d="M34.2048 17.6209C52.5946 0.778244 47.0403 8.06644 40.4336 22.6504C40.0334 23.7797 38.6032 25.3458 40.2558 26.1627C44.3798 27.6686 49.0004 29.005 53.2505 31.3503C55.1031 32.3668 53.2097 32.8561 50.9531 33.3832C46.1917 34.5125 43.8833 33.5676 38.2178 34.5125C37.6768 39.8017 43.346 49.1943 44.0796 56.347C44.6317 61.704 39.3997 52.7481 36.2131 47.8316C33.108 43.0468 31.4554 41.5937 30.1956 39.798C29.0136 38.119 26.0789 46.5742 19.0165 52.7519C17.3528 52.7519 18.079 49.5783 18.6274 48.0725C20.9951 39.7679 22.3624 35.4537 20.8506 35.3746C18.3866 35.2429 14.7293 34.9982 7.21482 34.8137C-13.4649 34.2904 16.4783 27.4163 20.4838 26.5128C19.0609 22.4772 15.2518 18.7804 13.073 14.5151C10.6053 9.70027 16.8636 13.8526 18.5977 14.8916C22.8812 17.4854 25.4453 21.7695 26.0641 14.5942C26.5384 9.09044 26.405 -1.24332 28.3169 0.123218C29.9584 1.31282 31.8816 11.9439 34.2048 17.6209Z" fill="#559268"/>
</svg>
