<svg width="106" height="96" viewBox="0 0 106 96" fill="none" xmlns="http://www.w3.org/2000/svg">
<path fill-rule="evenodd" clip-rule="evenodd" d="M104.656 49.4461C104.618 49.5509 104.524 49.8139 104.405 50.1449C104.51 50.1958 104.624 50.2501 104.783 50.3263C104.863 50.6187 105.308 50.9281 105.037 51.3237C104.794 51.6795 105.437 52.0556 104.945 52.3443C105.029 53.0907 104.503 53.6292 104.157 54.1506C103.843 54.6236 103.767 55.2143 103.292 55.6252C102.879 55.9826 102.646 56.5497 102.333 57.026C102.061 57.0384 101.807 57.0492 101.457 57.065C101.52 57.2671 101.567 57.4187 101.642 57.6577C101.548 57.7637 101.393 57.9389 101.225 58.1286C101.329 58.4476 101.426 58.7474 101.541 59.0995C101.377 59.2855 101.216 59.4702 101.039 59.6719C101.178 59.7216 101.308 59.768 101.53 59.8471C101.276 60.0273 101.068 60.1756 100.848 60.3313C100.891 60.3815 100.957 60.4589 101.061 60.5803C100.313 60.8586 99.6474 60.1884 98.8227 60.5123C98.3132 60.8797 97.9351 61.6294 97.1783 61.9065C96.8863 62.0138 97.1361 62.549 96.6357 62.486C96.4576 62.4636 96.5893 63.0369 96.1718 62.9255C96.0161 63.4449 95.5526 63.6536 95.1868 63.9809C94.8832 64.2518 94.6061 64.6051 94.3618 64.9584C94.158 65.2525 93.9405 65.5374 93.7247 65.8232C93.5296 66.0821 93.3006 66.3203 93.1399 66.5986C93.0032 66.836 93.0148 67.2415 92.83 67.3487C92.5815 67.4929 92.4117 67.6486 92.3587 67.9837C92.1143 67.8379 91.9652 67.7493 91.8152 67.6598C91.3484 67.888 90.8808 68.1051 90.4161 67.5343V66.3484C89.5226 65.8452 88.5886 65.4057 88.1703 64.2679C88.203 63.8926 88.0207 63.3608 88.3819 62.9218C87.8576 61.8747 88.3128 60.9883 88.8177 60.1151C89.4253 59.0643 90.2226 58.1671 91.1575 57.3408C90.6078 56.5161 90.0334 55.7478 89.5649 54.9198C89.2426 54.3503 88.8864 53.729 88.8686 53.0774C88.8504 52.4023 88.6379 51.6977 89.0405 51.0131C89.2203 50.7065 89.0476 50.2625 89.2493 49.8587C89.3702 49.616 89.4452 49.3463 89.6316 49.1135C89.7322 48.988 89.7277 48.778 89.8105 48.445C89.9965 48.2723 90.4629 48.0395 90.5602 47.7015C90.701 47.2103 91.3298 47.3975 91.3207 46.823C91.4831 46.946 91.5551 47.0007 91.6674 47.0856C91.9275 47.0086 92.2216 46.9216 92.5285 46.8313C92.6403 47.0434 92.7344 47.221 92.8483 47.4373C92.6234 47.8444 92.3777 48.2893 92.0952 48.8004C92.6536 48.7453 93.0848 48.7022 93.453 48.6658C93.6034 48.8161 93.6833 48.8957 93.7719 48.9843C93.6212 49.28 93.4691 49.5791 93.2687 49.9738C93.6228 50.0103 93.8978 50.0384 94.2387 50.0732C94.1547 50.4725 94.071 50.8731 93.9886 51.267C93.8444 51.3954 93.6887 51.5345 93.5284 51.6779C93.6299 51.7793 93.6717 51.8336 93.6808 51.8282C93.8283 51.7466 93.972 51.6576 94.1472 51.5515C94.2064 51.7097 94.2433 51.8071 94.2909 51.933C93.9712 52.095 93.6671 52.249 93.3205 52.4242C93.4812 52.4781 93.6087 52.5207 93.8448 52.5994C93.5756 52.8691 93.3366 53.1085 93.0251 53.4212C93.4223 53.7348 93.7744 54.0131 94.1518 54.3113C94.7076 54.417 95.1541 54.1825 95.5911 53.8048C96.6022 52.9321 97.7135 52.1703 98.7096 51.2931C99.7294 50.3947 100.814 49.5145 101.54 48.3108C101.71 48.0292 102.008 47.8254 102.265 47.5694H103.453C103.518 47.6518 103.63 47.7939 103.746 47.9397C103.616 48.3104 103.483 48.6923 103.309 49.1885C103.669 49.0895 103.962 49.0092 104.342 48.9044C104.402 49.0079 104.496 49.169 104.656 49.4461Z" fill="white"/>
<path fill-rule="evenodd" clip-rule="evenodd" d="M32.9701 73.236C32.6035 73.3495 32.3024 73.4431 31.913 73.5636C32.0079 73.3602 32.0704 73.226 32.1495 73.0558C31.8902 72.6652 31.597 72.3156 31.0606 72.3931C31.0192 72.2348 30.9927 72.133 30.9554 71.9913H30.0222C29.929 71.8981 29.8482 71.8538 29.8271 71.79C29.6842 71.3592 29.654 70.8473 29.3947 70.5093C29.0608 70.0748 29.2269 69.6486 29.2116 69.2277C29.1988 68.886 29.3367 68.536 29.4208 68.1931C29.7223 66.967 30.1887 65.8011 30.7827 64.6922C31.1484 64.0105 31.5581 63.3465 32.0071 62.7165C32.4457 62.101 32.9597 61.5389 33.4555 60.9346C33.3209 60.8485 33.1734 60.7482 33.0202 60.6575C31.5386 59.7811 30.2409 58.6776 29.0376 57.4541C28.4698 56.8767 28.4665 56.1017 28.3008 55.3885C28.2341 55.1031 28.29 54.7887 28.29 54.4876C28.5936 53.9085 29.2054 53.8596 29.7989 53.6235C29.999 53.9756 30.2044 54.3376 30.4364 54.7448C30.477 54.715 30.5474 54.6632 30.6737 54.57C30.7512 54.647 30.8875 54.7212 30.9256 54.8301C31.1617 55.5015 31.7101 55.8432 32.2929 56.134C33.4787 56.7267 34.6753 57.2963 35.9486 57.9147C36.2464 57.5999 36.5442 57.1169 36.9766 56.8754C37.3751 56.6526 37.3958 56.0151 38.0171 56.0764C37.9285 55.9675 37.8668 55.8917 37.7748 55.779C37.9653 55.6457 38.1584 55.5106 38.4272 55.3226C38.5121 55.1354 38.6417 54.85 38.7685 54.5704C38.9607 54.5592 39.1392 54.5489 39.3964 54.534C39.2871 54.3931 39.2299 54.3198 39.1413 54.2055C39.6209 54.1355 39.6528 53.6389 39.9547 53.3721C40.2737 53.0901 40.4994 52.7028 40.8018 52.3151C40.8689 52.3644 40.9389 52.4157 41.0723 52.5139C41.1311 52.3756 41.1862 52.2451 41.2553 52.0815C41.3369 52.1473 41.4123 52.2078 41.5482 52.318C41.696 51.5248 42.1459 50.8886 42.6239 50.3166C43.1163 49.7267 43.5591 49.0495 44.3652 48.6548C44.4662 48.738 44.6017 48.8495 44.7549 48.9754C44.4364 49.5872 44.1278 50.1935 43.475 50.5129V51.4163C43.6295 51.3786 43.7865 51.3856 43.8192 51.3251C43.9501 51.0812 44.0425 50.8165 44.0943 50.6918C44.6311 50.2495 45.0697 49.8883 45.6231 49.4327C45.6546 49.8547 45.6744 50.1302 45.6943 50.3944C45.5258 50.4636 45.3973 50.5162 45.2623 50.5717C45.2971 50.6202 45.3406 50.7138 45.3638 50.7088C45.638 50.6525 45.9093 50.5812 46.2427 50.4988C46.3372 50.6653 46.4523 50.8679 46.5683 51.0716C46.5062 51.1408 46.432 51.2228 46.3521 51.3115C46.3993 51.6387 46.7928 51.9274 46.4884 52.3022C46.3997 52.2223 46.321 52.1511 46.2407 52.0777C46.2034 52.1477 46.1309 52.2219 46.1458 52.2687C46.1872 52.4012 46.2647 52.5226 46.3517 52.6941C46.2895 53.2677 45.831 53.6488 45.4056 54.0361C45.003 54.4027 44.5602 54.7245 44.0425 55.1399C44.2554 55.2621 44.4405 55.369 44.6489 55.4891C44.5188 55.7389 44.4401 55.8896 44.3573 56.0479C44.4053 56.1013 44.4774 56.18 44.5892 56.3034C44.3436 56.3428 44.1365 56.3763 43.8395 56.4248C43.9203 56.6306 43.9895 56.8059 44.0694 57.0092H43.3172C43.1776 57.2954 43.0559 57.5452 42.9399 57.783C43.0476 57.8989 43.123 57.9801 43.2315 58.0969C43.0008 58.1396 42.7941 58.1781 42.4934 58.2344C42.5663 58.4266 42.633 58.5998 42.7113 58.8056C42.5182 58.8342 42.3103 58.8648 42.0394 58.9046C42.1189 59.1192 42.1836 59.2931 42.2904 59.5814C41.9963 59.4671 41.7822 59.3838 41.5237 59.2836C41.402 59.5156 41.2777 59.7525 41.1568 59.9828C41.1998 60.0648 41.2168 60.1547 41.2678 60.1824C41.3576 60.2313 41.479 60.2222 41.5681 60.2719C41.9139 60.4649 41.9947 60.9122 42.3347 61.104C42.7013 61.3111 42.8608 61.6665 43.0944 61.983C43.3048 62.2679 43.461 62.5082 43.4373 62.8689C43.4291 62.9924 43.5392 63.1232 43.6076 63.2777C43.5479 63.3792 43.4626 63.5238 43.3462 63.7218C43.041 63.757 42.8189 64.1658 42.2618 63.95C41.2889 63.5727 40.2762 63.2347 39.2195 63.1075C39.1607 63.1005 39.1123 63.0069 39.0162 62.9108C38.7072 63.2591 38.4002 63.605 38.015 64.0395C38.0101 64.0805 37.9894 64.2582 37.9666 64.4499C37.7504 64.4839 37.5433 64.5166 37.2214 64.5672C37.4339 64.8654 37.5926 65.0882 37.8291 65.4204C37.5619 65.3421 37.3838 65.2903 37.1576 65.2241C37.1108 65.2796 37.016 65.3918 36.9129 65.5136C37.0437 65.8752 36.9385 66.0964 36.5148 66.337C36.3881 66.7927 36.2663 67.2305 36.1648 67.5958C35.9734 67.6662 35.8666 67.7056 35.7286 67.7565L35.9759 68.0038C35.6384 68.2622 35.2511 68.4714 34.9893 68.7854C34.7528 69.0683 34.6542 69.4659 34.4703 69.8669C34.4881 69.8942 34.5623 70.0052 34.6799 70.1812C34.431 70.4376 34.1866 70.6895 33.9513 70.9314C34.0429 71.0457 34.1104 71.1298 34.2272 71.2756C34.0611 71.4653 33.8979 71.6516 33.716 71.8592V72.5177C33.4493 72.7745 33.1788 73.0351 32.9701 73.236Z" fill="white"/>
<path fill-rule="evenodd" clip-rule="evenodd" d="M60.7494 77.7378C61.2713 78.369 61.2717 78.3703 61.9051 78.0203C61.9229 78.2224 61.9167 78.3984 61.9602 78.5608C61.9912 78.6759 62.089 78.7733 62.1519 78.871C62.0716 78.9518 62.0181 79.0048 61.9502 79.0728C62.108 79.1465 62.2588 79.2173 62.5057 79.3329C62.2488 79.6986 62.0065 80.0432 61.7646 80.3883C62.0765 80.9491 61.4167 81.0485 61.3219 81.3488C61.1757 81.8127 60.6115 81.9125 60.5954 82.4083C60.5767 82.9865 59.9836 83.0578 59.726 83.3945C59.5023 83.6874 59.1046 83.8787 59.0533 84.2523C59.1423 84.4048 59.2128 84.5253 59.3283 84.7237C58.9941 84.9126 58.7029 85.0778 58.4109 85.2431L57.7063 85.5761C57.4922 85.8288 57.278 86.0815 56.9918 86.4186V86.6402C56.2707 87.17 55.5972 87.6658 54.8152 88.2407C55.0389 88.3546 55.1743 88.4238 55.3988 88.5385C55.0881 88.973 54.7738 89.4129 54.4358 89.8855C55.3035 90.1812 56.1199 90.46 56.962 90.7474C56.8787 90.9148 56.8083 91.056 56.7131 91.2474C57.0883 91.3812 57.4391 91.5062 57.8397 91.6491V92.1404C58.0915 92.3719 58.3123 92.5745 58.5409 92.7849C58.555 93.0504 58.5678 93.3039 58.5807 93.5462L58.9903 93.9554L57.9511 94.8203C57.7063 95.0928 57.4512 95.0423 57.177 94.8604C57.0937 94.8054 56.9769 94.7739 56.8758 94.7759C55.7094 94.8016 54.6553 94.3576 53.5941 93.9695C52.8113 93.6837 52.0578 93.318 51.246 92.9684C51.0244 93.1891 50.6794 93.3565 50.6351 93.8121C50.1662 93.9231 49.6853 94.0374 49.2355 94.1439C49.0035 93.909 48.8184 93.7218 48.6328 93.5338C48.7032 93.4559 48.7761 93.3755 48.8838 93.2567C48.772 93.0239 48.6515 92.7733 48.5794 92.6242C48.2302 92.678 47.9212 92.7261 47.6197 92.7725C47.4528 92.4428 47.3028 92.1449 47.1491 91.8405C47.0742 91.9155 47.0212 91.9685 47.0017 91.988C46.7519 91.7341 46.5001 91.4785 46.1522 91.1256C46.2603 90.3419 45.7587 89.4419 45.8933 88.4689C45.9219 88.2651 45.7657 87.9702 45.6013 87.8161C44.9348 87.1907 44.9062 86.2869 44.5931 85.5177C44.4734 85.2241 44.3458 84.8513 44.3355 84.4963C44.3181 83.9326 44.2522 83.3535 44.3487 82.8059C44.5012 81.9399 44.6652 81.0162 45.6738 80.6753C46.0072 80.5626 46.3742 80.5502 46.8136 80.4773V82.2389C47.196 81.9929 47.4519 81.828 47.8338 81.582C47.8868 81.7377 47.9506 81.9233 48.0136 82.1088C48.0703 82.0658 48.1271 82.0227 48.1838 81.9796V83.0188C48.3781 82.9203 48.5185 82.849 48.651 82.7815C49.1303 83.2007 49.1178 83.7375 49.0516 84.2896C49.2119 84.3464 49.3423 84.3923 49.5515 84.4665C49.4625 84.7084 49.3734 84.9486 49.2657 85.239C49.3962 85.2154 49.4616 85.2224 49.4981 85.193C49.5859 85.1234 49.6464 84.9991 49.7425 84.9627C50.7071 84.5961 51.1926 83.5706 52.161 83.2139C52.3557 82.5127 53.095 82.3632 53.527 81.8906C53.9764 81.3993 54.6106 81.0796 55.1528 80.6699C55.6775 80.2731 55.9733 79.6046 56.658 79.3946C57.1078 78.5757 57.7552 77.9552 58.5608 77.4922C58.5326 76.9375 59.2956 76.8688 59.2778 76.2839H60.2963C60.3692 76.3564 60.4757 76.4629 60.5821 76.5693C60.0946 76.812 59.9165 77.283 59.6046 77.7809C60.2793 77.9204 60.6678 77.0991 61.3036 77.4781C61.1197 77.5642 60.9694 77.6346 60.7494 77.7378Z" fill="white"/>
<path fill-rule="evenodd" clip-rule="evenodd" d="M58.1293 65.7984C58.0767 65.2703 58.8198 65.2123 58.4677 64.7203C58.3778 64.8006 58.2979 64.8715 58.218 64.9423C58.1915 64.9154 58.1455 64.8918 58.1409 64.8619C58.0573 64.3086 58.0908 63.7838 58.4835 63.3327C58.9155 62.8373 59.3438 62.3378 59.758 61.8275C59.8888 61.6664 59.9696 61.4647 60.0984 61.2377C59.8938 60.7046 59.6134 60.152 59.3699 59.6028C59.1085 59.013 59.1143 58.3735 58.8302 57.7899C58.679 57.48 59.0733 56.9362 58.9809 56.5568C58.877 56.1322 58.6264 55.771 58.9925 55.3709C59 54.2518 59.7609 53.5542 60.4265 52.7772H62.3082C62.4184 52.8816 62.5273 52.9851 62.7038 53.152C62.4175 53.517 62.1309 53.8819 61.8141 54.2857C61.8493 54.3611 61.9342 54.5413 62.0477 54.7828C62.1537 54.7828 62.3567 54.8436 62.4291 54.772C62.7435 54.4634 63.1068 54.5881 63.4377 54.5516C63.5599 54.8163 63.6618 55.0375 63.7753 55.2831C63.6055 55.4952 63.4303 55.7143 63.1644 56.0461C63.5665 56.0974 63.8362 56.1318 64.1907 56.177V57.2597C64.9537 57.2845 65.0374 56.3604 65.6798 56.3642C65.9714 55.9202 66.3968 55.6112 66.7799 55.257C67.2219 54.849 67.6423 54.4166 68.059 53.9821C68.4425 53.5816 68.8319 53.1827 69.1765 52.7503C69.531 52.3046 69.8359 51.8191 70.0409 51.5251C70.5077 51.3577 70.7707 51.2633 71.0971 51.1465C71.204 51.2985 71.3792 51.453 71.4239 51.639C71.4583 51.7819 71.3444 51.972 71.2678 52.1265C71.1804 52.3021 71.0607 52.4612 71.0619 52.7702C71.3912 52.6314 71.7205 52.4922 72.0829 52.3394C72.2764 52.7163 72.4835 53.1197 72.7974 53.7315C72.7974 53.7187 72.7792 53.9411 72.8036 54.1586C72.8227 54.3275 72.8944 54.4907 72.9577 54.7074C72.913 54.7852 72.831 54.9294 72.7552 55.0628C72.8691 55.1858 72.9449 55.2674 73.0124 55.3399C72.358 56.3878 71.769 57.4726 71.0512 58.487C70.4485 59.3386 70.533 59.3982 70.0915 59.6393C70.1619 59.7175 70.2331 59.7962 70.2903 59.8596C69.3964 60.8612 68.51 61.8548 67.6104 62.8634V63.2383C68.317 63.6885 69.0009 64.1238 69.7158 64.579C69.6122 64.782 69.5489 64.9062 69.4511 65.0989C69.7216 65.3312 69.9034 65.7781 70.427 65.6133C70.5417 65.8411 70.6353 66.0271 70.7273 66.2102C70.6614 66.3021 70.5794 66.416 70.4671 66.5722C70.7504 66.8559 71.0048 67.1106 71.2798 67.3861C71.175 67.6557 71.086 67.8856 70.987 68.1403C71.0594 68.2646 71.1464 68.4145 71.2268 68.5525C71.187 68.6382 71.1746 68.7268 71.1253 68.7596C71.0143 68.832 70.8511 68.8461 70.7699 68.9381C70.2841 69.4865 70.1971 69.5171 69.5861 69.3084C68.795 69.0379 67.9442 68.8789 67.2215 68.4841C66.2531 67.9556 65.3828 67.2473 64.3825 66.5552C63.9625 66.8658 63.4912 67.292 63.0372 67.7771C62.5981 68.2464 62.0195 68.6183 61.2151 68.8577C61.3568 68.6237 61.4148 68.528 61.5403 68.3193C61.0362 68.4133 60.6133 68.492 60.1908 68.5707L60.1183 68.4253C60.3726 68.2269 60.6265 68.0289 60.8809 67.8309L60.4878 67.4378H59.7165C59.6138 67.1798 59.4995 66.8907 59.3645 66.551H58.4284C58.2996 66.2267 58.184 65.936 58.1293 65.7984Z" fill="white"/>
<path fill-rule="evenodd" clip-rule="evenodd" d="M63.0289 43.6336C62.6412 43.7264 62.2995 43.8084 61.8174 43.924C61.3224 43.5582 60.7305 43.1026 60.1196 42.6751C59.391 42.1653 58.7581 41.5158 57.9264 41.1567C57.7338 41.0734 57.5316 41.0134 57.2641 40.9173C56.9397 40.4314 56.902 39.5293 55.9506 39.6287C55.5203 39.2352 55.4677 38.5518 54.8385 38.4855C54.6326 38.1347 54.5026 37.7333 54.2321 37.4827C52.9974 36.3375 52.1039 34.9619 51.3356 33.3022C51.2689 32.7898 51.2685 32.1068 51.1579 31.4217C50.9839 30.3427 51.5588 29.4162 52.4933 28.818C52.7513 28.6532 52.8843 28.2908 53.313 28.3293C53.6112 28.3562 53.926 28.1976 54.322 28.1002C54.4392 28.2046 54.5945 28.3425 54.7904 28.5165C54.4719 29.0512 53.8697 29.3888 53.8241 30.107C54.5328 30.3436 54.8505 29.5562 55.5638 29.4654C55.6507 29.5433 55.8052 29.6808 55.9502 29.8109C55.6975 30.1899 55.5273 30.445 55.2138 30.9151C55.7013 30.7611 56.048 30.7586 56.1759 30.59C56.4994 30.1634 57.0226 29.9923 57.3262 29.5176C57.6091 29.0757 58.073 28.7464 58.5473 28.4382C59.2178 28.0029 59.7613 27.377 60.39 26.8709C61.3141 26.127 62.1802 25.3118 63.2095 24.6934C63.6167 24.4495 63.9178 24.0245 64.2558 23.6704C64.5631 23.3481 65.0515 23.2073 65.148 22.7268H66.6673V23.7068C66.625 23.7491 66.4792 23.8949 66.3036 24.0709C66.5049 24.0349 66.7058 24.0063 66.9029 23.9615C67.1034 23.916 67.3006 23.8547 67.6046 23.7714C67.5582 24.5008 67.5934 25.1466 68.1203 25.6171C68.0093 25.7666 67.9459 25.852 67.8183 26.0247C67.979 26.1133 68.1654 26.2152 68.5121 26.4053C68.1551 26.5031 68.0337 26.5362 67.868 26.5818C67.931 26.7259 68.0155 26.8605 68.0461 27.0067C68.0772 27.1509 68.0532 27.3062 68.0532 27.4541C67.6344 28.029 67.2152 28.6039 66.7551 29.2351C66.6706 29.2447 66.4925 29.2641 66.2307 29.2927C66.3102 29.4021 66.3591 29.4704 66.4233 29.5591C66.3558 29.7206 66.2808 29.8999 66.1967 30.0996C65.2026 30.0515 65.1956 31.0759 64.5809 31.4747C64.711 31.6458 64.7756 31.7307 64.805 31.7696C64.3962 32.1789 63.9836 32.5914 63.567 33.0077C63.6005 33.0383 63.5471 32.9899 63.5703 33.0106C63.3847 33.1957 63.1933 33.3871 63.002 33.5789C62.9399 33.5304 62.8781 33.4824 62.816 33.4339V34.0287C62.6847 33.9206 62.6085 33.8576 62.4374 33.7172C62.4751 33.9707 62.5004 34.1393 62.5356 34.3762C62.2535 34.7415 61.9143 35.181 61.5469 35.6573C61.3816 35.5364 61.269 35.4531 61.1687 35.3794C60.762 35.8549 60.3449 36.3424 59.9241 36.8345C60.086 36.9153 60.2355 36.9894 60.4534 37.0975C60.2504 37.3547 60.0761 37.5759 59.9125 37.7834C59.939 37.875 59.939 37.9595 59.9808 38.0067C60.6688 38.7779 61.4848 39.4676 62.0212 40.3316C62.6255 41.3046 63.3806 42.309 63.0289 43.6336Z" fill="white"/>
<path fill-rule="evenodd" clip-rule="evenodd" d="M78.7017 27.3025C78.7713 27.2329 78.8247 27.1795 78.8798 27.1244C78.8392 27.0722 78.8049 27.0121 78.7564 26.9678C78.4636 26.7006 78.0937 26.4716 77.8567 26.2098C77.6244 25.9538 77.3643 25.7588 77.129 25.5243C76.8163 25.2124 76.4675 24.7659 76.4509 24.3645C76.4215 23.6463 76.378 22.926 76.5487 22.1734C76.8432 20.8741 77.5237 19.8903 78.425 18.9928C79.5691 17.8533 80.7093 16.7101 81.9097 15.5098C81.4541 15.1175 81.4309 14.3769 80.7093 14.2328C80.4062 13.6434 80.1042 13.054 79.801 12.4646C79.5214 11.9207 79.5715 11.3338 79.5744 10.7527C79.5769 10.3389 79.5753 9.92508 79.5753 9.5113C79.9559 9.02544 80.3366 8.53958 80.711 8.06242H82.5927C82.2912 8.57727 82.0331 9.01757 81.7801 9.44999C82.4759 9.95532 82.7315 8.86059 83.3428 9.19443C83.7243 9.71674 83.0144 9.96277 82.7895 10.4681C83.2236 10.3641 83.4758 10.3032 83.7844 10.2291C83.9675 10.7659 83.8759 11.2356 83.5872 11.7401C83.7413 11.8002 83.8627 11.8474 84.0457 11.9182C84.1762 12.0582 83.9053 12.0785 83.8593 12.2848C84.0408 12.5623 84.2615 12.9003 84.5345 13.3182C86.3984 11.3624 88.7751 10.0514 90.2285 7.81763H91.3618C91.2744 8.19041 91.1982 8.51597 91.0938 8.96124C91.4086 8.85023 91.6509 8.76491 91.9831 8.64769V9.52414C92.1645 9.57177 92.2664 9.59828 92.3683 9.6252C92.3969 9.68857 92.4416 9.75029 92.4495 9.81615C92.4631 9.92715 92.4346 10.0448 92.4561 10.1537C92.686 11.3267 92.102 12.2574 91.4889 13.1364C90.8262 14.0874 90.0566 14.9643 89.2788 15.9422C89.8338 16.6086 90.7214 16.9325 91.5026 17.5547C91.5171 17.6574 91.5407 17.8305 91.5685 18.0298C91.7756 18.2886 92.1102 18.5392 92.2051 18.8606C92.413 19.5652 92.9275 20.2213 92.5779 21.1309C92.4925 21.1698 92.3045 21.2622 92.1119 21.3442C91.9197 21.4258 91.7238 21.4962 91.5055 21.5811C91.2064 21.2771 90.5309 21.3736 90.6216 20.7817C89.932 20.5825 89.3251 20.4069 88.737 20.2366C88.6024 20.0026 88.4802 19.7905 88.3422 19.5507H87.0947C87.0632 19.4161 87.0388 19.3142 87.0089 19.1883C86.5475 18.8333 86.1598 19.2512 85.8902 19.3233C85.5215 19.7508 85.2395 20.078 84.9276 20.4388C84.8381 20.3708 84.7664 20.3161 84.6422 20.2221C84.5088 20.4106 84.3651 20.6135 84.1899 20.8608C84.1667 20.8306 84.2234 20.9039 84.3075 21.0124C83.784 21.1437 83.7384 21.6698 83.5081 22.1026C83.3271 21.9912 83.2082 21.9179 83.026 21.8056C82.9949 22.0003 82.9647 22.1908 82.9282 22.4161C82.8504 22.4373 82.7489 22.4646 82.5675 22.5139C82.519 22.9716 82.454 23.5291 81.7755 23.3771C81.5477 23.6724 81.1658 23.947 81.1919 24.1757C81.2698 24.8628 80.6944 25.1913 80.5375 25.7285C80.4633 26.4074 80.4737 26.407 80.6845 26.8605C80.1928 27.2524 79.6378 27.5162 79.0004 27.679C78.9171 27.5738 78.8239 27.457 78.7017 27.3025Z" fill="white"/>
<path fill-rule="evenodd" clip-rule="evenodd" d="M12.6408 14.5398C12.3596 14.5746 12.1901 14.5957 11.9764 14.6222C12.1065 14.7664 12.1806 14.848 12.2991 14.9793C12.0187 15.5008 11.4873 15.8135 11.1269 16.2695L11.3033 16.446C11.0163 16.6713 10.7288 16.8966 10.4845 17.0884C10.3494 17.4442 10.6377 17.8455 10.1626 18.0659C10.5835 18.348 10.9683 18.5998 11.3464 18.8608C12.5323 19.68 13.8006 20.3829 14.7781 21.4864C15.3381 22.118 15.8654 22.7286 15.8753 23.6357C15.877 23.7885 16.0323 23.9393 16.1561 24.1634C15.8152 24.3792 15.4959 24.5809 15.0958 24.8339C12.8413 23.5131 10.5106 22.3359 8.37287 20.6108C8.21962 20.6981 7.88494 20.7719 7.82323 20.9438C7.57843 21.6247 7.09879 22.1027 6.61045 22.5902C6.5508 22.6499 6.57317 22.7911 6.55701 22.8955C6.34784 22.9187 6.17015 22.9377 5.89885 22.9676C5.95104 23.1461 5.99536 23.2977 6.07281 23.5632C5.6379 23.9273 5.31317 24.469 5.1421 25.1417C5.04269 25.5323 4.66826 25.8525 4.33275 26.3242V28.7788C4.11902 28.7925 3.94092 28.8037 3.7392 28.8165C3.69571 28.9387 3.64932 29.0696 3.59382 29.2266H2.81512C2.69334 28.8737 2.56867 28.5116 2.42453 28.0945C2.2079 28.1898 1.99169 28.2847 1.73405 28.3977C1.68104 28.2337 1.6392 28.1053 1.59737 27.9769C1.53358 27.9504 1.46317 27.8916 1.40559 27.9024C0.927605 27.9931 0.600386 27.5888 0.541569 27.3316C0.301747 26.2845 -0.375886 25.249 0.274824 24.1248C0.286836 23.0115 0.978138 22.1619 1.36997 21.1935C1.49796 20.8775 2.04802 20.933 1.89891 20.3871C1.8376 20.1626 2.24518 19.8068 2.44565 19.5148C2.62749 19.2501 2.79855 18.9755 3.00772 18.734C3.25334 18.4503 3.5524 18.2125 3.79595 17.9276C3.99849 17.6898 4.15465 17.4127 4.35305 17.1211C2.98039 16.0902 2.1408 14.6255 1.17861 13.2599C0.870031 11.9386 0.336954 10.6554 0.544883 9.10839C0.862575 8.74347 1.26891 8.27626 1.70589 7.77466C2.18968 7.87407 2.73352 7.57418 3.17547 8.07827C2.88595 8.46845 2.59849 8.85572 2.30814 9.24714C2.38808 9.33164 2.46222 9.41117 2.53553 9.48904C3.14855 9.61578 3.37305 8.72359 4.0134 8.93028C4.10867 9.11501 4.20352 9.30016 4.30293 9.49235C4.10577 9.61868 3.88003 9.76365 3.64311 9.91525C3.78766 10.0602 3.89411 10.1667 4.00056 10.2731C4.32033 9.94217 4.63098 9.93803 5.00666 10.3908C4.97269 10.643 5.1682 11.0075 4.79086 11.3012C4.94743 11.3766 5.10068 11.4503 5.31979 11.5551C5.13962 11.7974 4.97974 12.0119 4.81613 12.2319C4.96855 12.2861 5.09944 12.3321 5.37323 12.4295C5.12139 12.4974 5.0021 12.5293 4.79334 12.5856C4.8153 12.7691 4.77139 13.0201 4.87577 13.1605C5.3082 13.7421 5.78536 14.29 6.2969 14.9118C6.57855 14.6591 6.79476 14.471 7.00394 14.276C8.23991 13.1237 9.27417 11.7419 10.8071 10.9259C10.7988 10.5013 11.2433 10.5312 11.4346 10.3038C11.6513 10.0466 11.8919 9.80963 12.0472 9.64353H12.8065C12.4623 10.1501 11.8758 10.4363 12.0671 11.1661C12.5575 10.8737 13.0376 10.5875 13.6225 10.2392C13.5703 10.5734 13.5297 10.831 13.4841 11.1239C13.6887 11.227 13.9928 11.3815 14.3191 11.5464C14.2351 11.7208 14.1646 11.8661 14.0826 12.0364C14.2007 12.0612 14.3034 12.0824 14.4107 12.1047C14.4219 12.1486 14.4649 12.2236 14.4442 12.2513C14.1692 12.6225 13.801 12.9505 13.6258 13.3618C13.4062 13.8779 12.922 14.1103 12.6408 14.5398Z" fill="white"/>
<path fill-rule="evenodd" clip-rule="evenodd" d="M33.2601 26.07C34.1601 24.9657 34.9202 24.0478 35.6645 23.1171C36.3695 22.2357 36.9721 21.2839 37.5201 20.3084C37.4501 20.2219 37.3822 20.1382 37.2658 19.9949C37.4572 19.7778 37.6465 19.5625 37.8473 19.3342H38.5917C38.87 19.6126 39.0941 20.0098 39.4126 20.1113C39.8015 20.2347 39.8566 20.5458 40.0136 20.7781C40.5579 21.5829 40.9365 22.3997 40.5181 23.4485C40.2609 24.0934 40.0004 24.7387 39.7328 25.3807C39.6524 25.5742 39.5936 25.7767 39.4913 26.0712L38.921 26.642V27.3527C38.4744 28.1617 38.1029 28.836 37.6962 29.5733C38.2582 29.9552 38.776 30.3234 39.3095 30.6672C40.3665 31.3485 41.2409 32.1948 41.7632 33.3574C41.8755 33.6076 41.9268 33.8855 42.0436 34.2761C42.0034 34.3652 41.9053 34.5843 41.7968 34.8245C41.564 34.933 41.3126 35.0503 41.1162 35.1414C40.5852 34.9579 40.1155 34.8208 39.6665 34.634C39.2171 34.4476 38.7884 34.2115 38.3506 33.9974C38.276 33.3433 37.5305 33.6076 37.2236 33.1627C36.9717 32.7974 36.4117 32.6454 35.9205 32.3592C34.4484 33.8611 33.152 35.5017 31.9624 37.2298C31.8708 37.3623 31.9002 37.5781 31.8737 37.755C31.3552 38.1543 30.8424 38.0934 30.3279 37.7306V37.3714C29.6594 36.9709 29.0327 36.5956 28.3472 36.1848C28.0192 35.8004 28.1861 35.1965 27.9724 34.7293C27.7342 34.209 27.9355 33.7054 27.8452 33.3226C28.5924 31.6571 29.4768 30.1983 30.743 28.9396V28.1708C30.0111 27.6609 29.5563 26.8661 29.0957 26.0865C28.9412 25.8252 28.9172 25.4839 28.8463 25.1765C28.7026 24.5511 28.4876 23.9459 28.5067 23.2816C28.5436 22.0108 29.2651 21.1041 30.4783 20.6481C31.2433 20.3606 31.9864 20.5052 32.809 20.4244C32.3662 21.341 31.3055 21.2627 30.6854 22.0311C31.7549 21.9839 32.4064 20.9765 33.497 21.1687C33.4547 21.4255 33.4125 21.6827 33.3678 21.9536C33.5678 22.0241 33.8615 22.128 34.144 22.2283V23.6626C33.8532 24.17 33.5339 24.6762 33.2733 25.2113C33.1892 25.3832 33.2601 25.6309 33.2601 26.07Z" fill="white"/>
<path fill-rule="evenodd" clip-rule="evenodd" d="M52.3493 12.0085C51.9264 12.5387 51.5403 13.0233 51.1133 13.5585V15.0078C50.7161 15.1672 50.3296 15.323 49.8931 15.4982C49.377 14.997 49.1678 14.3322 49.0025 13.7038C48.7813 13.7863 48.5858 13.8588 48.2955 13.9664C48.0677 13.6388 47.7906 13.3493 47.6411 13.0047C47.1937 11.9721 47.2293 10.8695 47.2782 9.83189C47.4658 9.40444 47.6332 9.02254 47.8419 8.5458C47.5296 8.49899 47.2529 8.54249 47.1382 8.42651C46.4084 7.68882 45.6881 6.93828 45.0192 6.14592C44.6588 5.71846 44.2786 5.23509 44.1348 4.71444C43.9253 3.95231 43.9203 3.13385 43.8213 2.28266C44.1651 1.79929 44.4447 1.23308 44.8812 0.842899C45.2826 0.484201 45.8534 0.315207 46.4722 0C46.6163 0.156154 46.7567 0.307337 46.8988 0.461006C46.816 0.540533 45.7129 1.60296 45.7129 1.60296C45.7925 1.6829 45.8724 1.76284 45.99 1.88006C46.495 1.51183 46.9978 1.03012 47.8187 1.34781C47.615 1.62698 47.4563 1.84402 47.1776 2.2255C47.5545 2.07846 47.7649 1.99686 48.0565 1.88337C48.194 2.09047 48.3415 2.3129 48.5204 2.58296C48.2089 2.89485 47.9641 3.13964 47.6688 3.43538C47.8593 3.47432 47.9621 3.49586 48.1327 3.53106C47.8767 3.96266 48.0213 4.55953 47.3615 4.77988C48.0163 5.5855 48.7453 6.02953 49.4851 6.52077C51.9753 4.45598 54.4112 2.43592 56.8798 0.388935H57.9696C57.7786 0.771657 57.627 1.07692 57.4734 1.38592C57.8006 1.63568 58.0595 1.35527 58.3494 1.22935C59.1869 2.01095 59.3841 2.9868 59.2118 4.07533C58.8638 4.52183 58.5064 4.98036 58.1415 5.4484C58.1651 5.46994 58.2193 5.52047 58.3684 5.6584C58.1676 5.68408 57.9741 5.70893 57.7803 5.73379C57.8561 5.81497 57.9319 5.89657 58.0077 5.97817H57.5873C56.8131 7.43491 55.5047 8.42609 54.5466 9.75319C55.8596 10.4847 57.3288 11.0289 58.718 11.8569C58.7603 12.0657 58.8079 12.3026 58.8638 12.5826C59.0345 12.402 59.1625 12.2666 59.2859 12.1361C59.8451 12.2115 59.8335 12.8543 60.3028 13.0896C60.7137 13.2959 60.9535 13.8434 61.2732 14.2452V15.5864C61.1647 15.6949 61.0583 15.8014 60.9092 15.9505C59.7461 15.8262 58.7843 15.1635 57.7252 14.6275C57.7037 14.647 57.625 14.7182 57.5906 14.7493C56.8496 14.5662 56.4076 13.7709 55.5527 13.8898C55.1542 13.3775 54.499 13.3377 53.9879 13.0357C53.4713 12.7309 52.971 12.3999 52.3493 12.0085Z" fill="white"/>
<path fill-rule="evenodd" clip-rule="evenodd" d="M85.2451 30.0558C85.4783 30.1875 85.6618 30.2911 85.931 30.4431C85.8697 30.8109 85.8076 31.1816 85.7318 31.6381C85.9211 31.9669 86.0797 32.4677 86.6542 32.6698C86.9114 32.3111 87.0692 31.9007 87.5642 31.7002C87.9117 31.559 88.1159 31.064 88.3822 30.7256C88.6751 30.3532 89.0818 30.0989 89.3125 29.6453C89.5064 29.2639 89.9231 29.0029 90.1861 28.6475C90.4574 28.2801 90.6628 27.8639 90.8969 27.4695H92.1701C92.2372 27.8266 92.3474 28.1795 91.927 28.5481C92.2898 28.5647 92.5707 28.5775 92.8275 28.5891C92.9422 29.116 93.0457 29.5932 93.1476 30.0595C92.9646 30.1312 92.8349 30.1817 92.6821 30.2414C92.6982 30.3449 92.6957 30.453 92.7326 30.545C93.0474 31.3224 92.996 31.5892 92.3909 32.1894C92.1382 32.4395 92.0326 32.8289 92.1353 33.072C92.2969 33.4539 91.8118 33.3069 92.0409 33.6594C91.7982 33.4593 91.722 33.3964 91.5902 33.2878V33.917C91.3517 33.963 91.1454 34.0023 90.9002 34.0491V34.6667C90.6111 34.9678 90.4073 35.1807 90.2375 35.358C90.6314 35.7436 90.9946 36.099 91.2966 36.3952V37.2459C91.5401 37.4895 91.7949 37.7442 92.0558 38.006C91.9746 38.1501 91.9228 38.2408 91.8321 38.4003C91.9506 38.6406 92.096 38.9363 92.2836 39.3178C92.0657 39.7726 91.8251 40.275 91.5964 40.7522H90.655C89.5582 40.1246 88.4949 39.5153 87.4346 38.9081C87.2465 39.1985 87.097 39.4296 86.9702 39.6255C86.7747 39.5303 86.624 39.4565 86.3647 39.3302V40.3814C86.0209 40.2535 85.7807 40.164 85.3308 39.9966C85.5164 40.2501 85.5673 40.3193 85.6651 40.4527C85.458 40.6474 85.2389 40.8532 84.8922 41.1788C84.8226 40.7584 84.7791 40.4949 84.7315 40.205C84.8901 40.1503 85.0185 40.106 85.1817 40.0493C85.1979 39.9643 85.2173 39.8616 85.2409 39.7361C85.098 39.6864 84.9667 39.6417 84.835 39.5961C84.8835 39.3965 84.9328 39.1952 85.0164 38.8539C84.8073 39.0456 84.7265 39.1198 84.6785 39.1637C84.1976 39.0734 83.7428 38.9885 83.2636 38.899C83.1898 38.7574 83.0941 38.5726 82.9811 38.3564C83.0664 38.0259 83.1633 37.6506 83.2615 37.2679C83.4822 37.3043 83.7627 37.3511 84.0431 37.3975C84.0547 37.3561 84.0659 37.3147 84.0779 37.2729C83.785 37.1258 83.4926 36.9788 83.2346 36.8491C83.3857 36.5368 83.5361 36.2258 83.6927 35.9019C82.9496 34.6398 82.1398 33.4485 81.6821 32.0775C81.4075 31.1332 81.7327 30.2 81.8685 29.2705C81.9741 28.5477 82.5718 28.0366 83.2259 27.6708C83.3191 27.6187 83.4073 27.5586 83.5564 27.4658H84.6797C84.857 27.6431 85.0164 27.803 85.1287 27.9152C84.9075 28.1364 84.6826 28.3609 84.5492 28.4939V29.1889C84.7982 29.1243 85.0372 29.0626 85.3105 28.9917C85.4538 29.1255 85.5851 29.2485 85.7674 29.4188C85.576 29.6524 85.4182 29.845 85.2451 30.0558Z" fill="white"/>
<path fill-rule="evenodd" clip-rule="evenodd" d="M17.3112 41.6577C17.4388 41.7853 17.5452 41.8917 17.696 42.0425C17.0038 42.6344 16.3154 43.2225 15.6274 43.8111C15.6428 43.8509 15.6585 43.8906 15.6743 43.93C15.8205 43.8873 15.999 43.8836 16.1054 43.7941C16.3043 43.6276 16.4608 43.4118 16.7338 43.358C17.2163 43.0859 17.6989 42.8133 18.1682 42.5482C18.5774 42.8792 18.2788 43.1405 18.1027 43.5419C18.3707 43.4404 18.5443 43.3745 18.7311 43.3033C18.8127 43.3849 18.9191 43.4914 19.026 43.5982C19.0264 44.0493 19.0264 44.5008 19.0264 44.9576C18.8947 45.086 18.7605 45.2177 18.6184 45.3561C18.6391 45.4083 18.6445 45.4803 18.683 45.5085C18.9398 45.7011 19.1962 45.8962 19.4671 46.0677C19.7583 46.2516 20.1659 46.3046 20.177 46.7756C20.1783 46.8298 20.2702 46.8911 20.3307 46.9338C20.5631 47.0974 20.8352 47.2212 21.0245 47.4238C21.2134 47.6255 21.3206 47.9034 21.5116 48.2298C21.5116 48.4208 21.5116 48.7219 21.5112 49.0226C21.3244 49.209 21.1384 49.3954 20.9827 49.5511C19.5582 49.0421 18.1503 48.5392 16.7429 48.0364C16.4302 48.2033 16.0934 48.3827 15.7563 48.562C15.7422 48.5392 15.7281 48.5164 15.714 48.4937C15.4212 48.7861 15.1283 49.0789 14.7543 49.453C14.7489 49.542 14.7382 49.7168 14.7245 49.9396C14.1314 50.51 13.5105 51.1077 13.0097 51.5898C12.7583 52.3698 12.8859 53.1708 11.8466 53.3353C11.6317 52.9915 10.8596 52.9364 11.0356 52.1349C10.8219 52.0732 10.5593 51.9966 10.2731 51.9137C10.2085 51.9572 10.0921 52.0351 10.0014 52.0956C9.71059 51.7882 9.45668 51.519 9.08763 51.1284C9.0052 50.4238 8.89958 49.5221 8.78857 48.5732C9.72674 47.5588 10.6512 46.5593 11.6321 45.4986C11.2485 45.2583 10.853 45.0574 10.5141 44.7861C10.1637 44.5053 9.8684 44.1557 9.53994 43.8273C9.63065 43.5344 9.72301 43.2358 9.82242 42.9131C9.63852 42.8502 9.50721 42.805 9.34402 42.7487V41.9857C9.40698 41.9224 9.48692 41.8428 9.57928 41.7501C9.90236 41.6859 10.2416 41.6183 10.6608 41.5347C11.7766 42.1609 12.9969 42.8456 14.184 43.5112C15.3744 43.0585 16.146 42.0143 17.3112 41.6577Z" fill="white"/>
</svg>
