<svg width="70" height="72" viewBox="0 0 70 72" fill="none" xmlns="http://www.w3.org/2000/svg">
<path fill-rule="evenodd" clip-rule="evenodd" d="M8.89579 58.6995C9.09096 58.2298 9.42674 57.7693 9.45661 57.2888C9.56983 55.4751 10.0851 53.7543 10.4859 52.0011C10.7445 50.8687 11.2042 49.8161 11.5532 48.7228C11.9009 47.6321 12.432 46.6008 12.8869 45.5449C13.4526 44.231 14.0768 42.9384 14.701 41.6581C15.1899 40.656 15.5229 39.523 16.3595 38.7005C16.8472 37.3352 17.8711 36.2481 18.3464 34.8699C18.4448 34.5837 18.7713 34.3767 19.1123 34.217C18.6533 35.0951 18.1955 35.9731 17.7357 36.8504C17.3604 37.5655 17.0364 38.3149 16.5942 38.986C15.8347 40.14 15.377 41.4446 14.6654 42.6265C14.0231 43.6939 13.5673 44.8844 13.1227 46.0565C12.8642 46.7368 12.6205 47.4489 12.3248 48.0913C12.0307 48.7308 12.1021 49.515 11.5513 50.0359C11.5767 51.1958 10.6915 52.1253 10.7302 53.2884C10.1672 54.1233 10.308 55.1402 10.0231 56.0288C9.72273 56.9664 9.78814 57.9265 9.56022 58.8534C9.52381 59 9.56355 59.1509 9.72703 59.2401C10.2802 59.3724 9.79734 58.47 10.3697 58.6063C10.7524 58.8763 10.1103 59.2538 10.4977 59.5925C10.8674 59.1858 11.216 58.7475 11.6242 58.3747C11.8502 58.1687 11.626 57.8389 11.8998 57.6904C11.8243 57.029 12.1199 56.4463 12.2801 55.8329C12.317 55.6907 12.4325 55.5002 12.4137 55.4501C12.1234 54.6746 12.4877 54.0318 12.7918 53.3745C12.8913 53.1599 12.5811 53.0873 12.6321 52.8901C13.0437 52.938 13.3723 52.5778 13.3714 52.3564C13.3659 51.3372 14.03 50.5851 14.3333 49.6965C14.738 48.5111 15.2015 47.3338 15.8876 46.2636C16.1504 45.8532 16.3269 45.3666 16.4629 44.922C16.7996 43.8164 17.5769 42.9624 17.996 41.9232C18.4049 40.9068 19.157 40.0875 19.5229 39.0358C19.6853 38.5677 20.0284 38.0954 20.359 37.6783C20.6413 37.3215 20.8509 36.9702 20.8038 36.5041C20.9144 36.4939 21.0236 36.4834 21.1806 36.4683C21.2943 36.1585 21.3545 35.7912 21.6598 35.552C22.0722 35.2289 22.1888 34.699 22.463 34.281C23.034 33.4096 23.5914 32.5371 24.2058 31.6907C24.5646 31.1968 25.0676 30.7303 25.2508 30.1944C25.4778 29.5315 26.1144 29.2622 26.3398 28.6996C26.627 27.9839 27.2955 27.5706 27.6226 26.9404C28.1484 25.9272 29.0923 25.2755 29.6782 24.3527C30.9502 22.348 32.7608 20.8241 34.2529 19.0195C34.4924 18.7295 34.7109 18.3678 35.0248 18.2097C35.3014 18.0705 35.4096 17.7703 35.739 17.6734C35.9469 17.6122 36.2464 17.3443 36.1884 16.9776C36.5937 16.9715 36.4062 16.243 36.933 16.3636C36.9706 16.3721 37.0645 16.2139 37.1018 16.1213C37.1272 16.0576 37.1003 15.9733 37.0958 15.8791C37.2809 15.8805 37.4659 15.8813 37.7111 15.8831C38.0675 15.4911 38.4318 15.0688 38.8213 14.6711C39.0175 14.47 39.1269 14.1631 39.5068 14.1541C39.6433 14.1511 39.8065 13.9463 39.9015 13.7975C40.0752 13.5244 40.0664 13.1671 40.5361 13.0746C40.8443 13.0139 40.9343 12.4604 41.403 12.4677C41.5033 12.4694 41.5974 12.2532 41.7116 12.1583C42.045 11.8809 42.1975 11.4088 42.6901 11.2974C43.1221 11.1997 43.1894 10.5332 43.7413 10.5893C43.7637 10.5918 43.7961 10.5407 43.816 10.5095C44.3425 9.68099 45.3155 9.33289 45.9037 8.56448C46.0505 8.37275 46.1685 8.12845 46.478 8.07616C47.2596 7.9442 47.7108 7.2735 48.3248 6.86716C48.7784 6.56639 49.1302 6.19659 49.7555 6.45824C50.0709 6.58982 50.4711 6.46723 50.5257 6.06233C50.5808 5.65007 50.746 5.48621 51.1435 5.44674C51.2538 5.4362 51.346 5.24063 51.4569 5.11864C51.4547 4.81439 51.1319 4.75384 50.9693 4.5103C50.657 4.55333 50.326 4.59843 49.9721 4.64727C50.1527 3.75402 49.9245 3.45878 49.2356 3.30103C48.134 3.0486 47.2521 3.55626 46.361 4.02919C45.7439 4.3571 45.1798 4.78247 44.5724 5.12986C43.9944 5.46089 43.5184 5.93279 42.8872 6.20479C42.5223 6.36175 42.1963 6.7142 41.8834 6.9845C41.0665 7.69052 40.0805 8.19083 39.3763 9.02342C39.1553 9.28494 38.7722 9.21876 38.566 9.53852C38.4022 9.79204 38.2303 10.1468 37.8022 10.1042C37.7545 10.0994 37.6854 10.1895 37.6452 10.2486C37.0748 11.0848 36.0661 11.4519 35.4845 12.2795C35.1893 12.6997 34.6087 12.7602 34.3061 13.2212C34.0204 13.6562 33.6685 14.0919 33.2477 14.3862C31.6966 15.4694 30.6544 17.0364 29.3631 18.3641C28.34 19.4157 27.376 20.5248 26.3957 21.6169C25.6592 22.4369 25.2074 23.4833 24.3454 24.2049C24.2049 24.8564 23.5673 25.1847 23.3164 25.723C23.0579 26.2778 22.5591 26.6343 22.3303 27.1417C22.0849 27.685 21.5292 28.0396 21.4192 28.5799C21.301 29.1632 20.5222 29.305 20.6355 29.9661C20.2221 30.3365 20.0191 30.8572 19.6968 31.2796C19.4462 31.6076 19.307 31.9664 19.1343 32.3104C18.822 32.9322 18.3238 33.4169 17.9814 34.0035C17.6602 34.5534 17.3397 35.1073 17.0303 35.6595C16.4117 36.7631 15.8375 37.8923 15.2134 38.997C14.8227 39.6886 14.438 40.4147 14.1718 41.1663C13.9101 41.9069 13.3631 42.4889 13.1511 43.2394C12.903 44.1182 12.3458 44.8605 12.0851 45.7391C11.8282 46.6049 11.4325 47.4257 11.1073 48.2687C10.4149 50.0625 9.91199 51.907 9.39884 53.7518C9.09472 54.8456 9.03997 55.9853 8.81713 57.0926C8.70875 57.6299 8.73881 58.1375 8.89579 58.6995Z" fill="black"/>
<path fill-rule="evenodd" clip-rule="evenodd" d="M47.716 33.4399C47.5107 33.6474 47.3781 33.7877 47.3836 34.0569C47.3912 34.4142 46.925 34.1734 46.7944 34.4304C46.7288 34.5599 46.4934 34.684 46.5144 34.763C46.6337 35.2174 46.105 35.2048 46.0528 35.4181C45.9611 35.7887 45.6678 35.9487 45.4843 36.2134C45.2398 36.5649 44.8359 36.7844 44.788 37.2984C44.749 37.7169 44.0895 37.6542 43.9937 38.1587C43.9461 38.4105 43.646 38.6521 43.4057 38.821C43.0953 39.0399 43.2622 39.453 42.9673 39.6752C42.7309 39.8533 42.5809 40.144 42.3467 40.3258C42.0577 40.5495 42.2161 40.9801 41.8999 41.1684C41.5837 41.3574 41.7304 41.7773 41.4558 42.0135C41.1899 42.2432 40.8711 42.4862 40.9176 42.9209C40.3949 43.4349 39.9116 43.9678 39.8504 44.7557C39.8434 44.8446 39.7179 44.9365 39.63 45.0049C39.2665 45.289 39.086 45.6976 39.0389 46.1183C39.0083 46.3871 38.8475 46.5018 38.7259 46.6762C38.6046 46.8497 38.4918 47.0108 38.4052 47.2243C38.0514 48.0944 37.7097 48.9727 37.3387 49.8311C36.8256 51.0193 36.3929 52.2263 36.0191 53.4583C35.9652 53.6365 36.01 53.8273 35.6983 53.8686C35.7345 53.5153 35.6221 53.1943 35.8019 52.8327C35.9692 52.4972 35.8895 51.9999 36.1126 51.7415C36.3791 51.4335 35.9499 51.0103 36.4402 50.7451C36.674 50.6184 36.6734 50.0704 36.7911 49.7179C36.9561 49.223 37.0358 48.663 37.3276 48.257C37.7299 47.6969 37.9265 47.0545 38.2046 46.4553C38.4854 45.8502 38.8482 45.2911 39.1362 44.6915C39.4233 44.0943 39.6289 43.4198 40.0444 42.9209C40.4915 42.3841 40.7712 41.7506 41.19 41.1987C41.4833 40.8127 41.8681 40.4085 42.0243 39.965C42.1568 39.5895 42.3435 39.3035 42.604 39.073C42.9 38.8114 42.7816 38.3886 43.1105 38.1278C43.5179 37.8046 43.8488 37.3778 44.1807 36.9702C44.4826 36.5998 45.0398 36.3378 45.0544 35.8563C45.0737 35.2267 46.0532 35.4577 45.8796 34.7754C46.3478 34.6754 46.6384 34.4167 46.6721 33.9122C46.6751 33.8763 46.7893 33.8178 46.8498 33.8202C47.2276 33.8362 47.3505 33.5034 47.5186 33.2901C48.6956 31.7964 50.24 30.6719 51.5135 29.277C51.5313 29.2574 51.5863 29.2715 51.6957 29.2663C51.3315 30.0475 50.4352 30.406 50.2544 31.2133C49.94 31.3345 49.6471 31.4467 49.4006 31.5411C49.2815 31.8168 49.6104 31.883 49.5418 32.0859C49.4025 32.1154 49.1627 32.0374 49.1478 32.2035C49.0983 32.753 48.5754 32.6398 48.2939 32.8682C48.3065 33.052 48.3187 33.2388 48.3353 33.4896C48.1045 33.4707 47.8817 33.4529 47.716 33.4399ZM58.5039 27.2552L58.0941 26.8827C58.0524 26.721 58.1601 26.7361 58.265 26.7094C58.5706 26.6306 58.7796 26.2111 59.1975 26.4964C59.3267 26.5846 59.5353 26.4888 59.6813 26.3226C59.9439 26.0245 60.259 26.0977 60.5485 26.3317L61.5342 25.2473C61.5086 25.0119 61.5696 24.7853 61.3311 24.6228C61.1914 24.5277 60.9708 24.4323 61.0081 24.2065C61.1008 23.6477 60.6842 23.2315 60.3399 23.1799C59.8555 23.1074 59.3711 22.9088 58.7847 23.1309C57.7838 23.5102 56.8914 24.0412 56.0312 24.6347C55.2377 25.1818 54.4968 25.8091 53.7391 26.4068C53.25 26.7928 52.8556 27.2913 52.3504 27.6101C51.8072 27.952 51.4577 28.4807 50.9579 28.8168C50.1238 29.3785 49.4277 30.0107 48.9857 30.931C48.9155 31.0778 48.5991 31.1685 48.4004 31.3058C47.6306 31.8392 46.3031 33.1414 45.8071 34.0109C45.6588 34.2708 45.2741 34.2082 45.2235 34.5009C45.1711 34.8036 45.186 35.1161 44.7359 35.0361C44.5673 35.878 43.4111 35.9405 43.3067 36.8922C43.271 37.2203 42.7876 37.4442 42.704 37.8921C42.6657 38.098 42.1415 38.0066 42.0153 38.38C42.0189 38.5651 42.0234 38.7842 42.0277 39.0086C41.8269 38.9863 41.654 39.025 41.5435 39.2094C41.2301 39.734 40.8321 40.218 40.549 40.7426C40.1488 41.4821 39.7227 42.2126 39.3274 42.9559C38.4541 44.5971 37.5603 46.2189 36.8452 47.9434C36.2953 49.2677 35.8036 50.5968 35.4078 51.9762C35.041 53.2554 34.8031 54.5018 35.2062 55.7991C35.3586 55.8224 35.3982 55.6926 35.4778 55.6223C35.558 55.5519 35.604 55.4274 35.8158 55.4728C35.7919 55.7785 35.7659 56.1047 35.7341 56.5091C36.267 56.4684 36.5607 56.7371 36.8206 57.0164C37.6291 56.7163 37.584 55.9857 37.6798 55.3754C37.7472 54.9491 37.8311 54.5624 38.0085 54.1578C38.6511 52.6916 39.2279 51.1969 39.8298 49.7126C39.6117 49.5295 39.5774 49.9545 39.3756 49.8176C39.3752 49.7836 39.3505 49.7085 39.3761 49.6612C39.5814 49.2882 40.1093 49.3577 40.3172 48.9634C40.5804 48.4632 40.8737 47.9786 41.1625 47.4922C41.8332 46.3645 42.2727 45.107 43.1715 44.1021C43.4926 43.7441 43.6862 43.2551 43.9607 42.8368C44.1414 42.5617 44.5655 42.43 44.502 42.0006C45.3229 41.3401 45.5771 40.2272 46.4075 39.5877C46.7922 39.2914 46.811 38.6956 47.3372 38.5459C47.3935 38.0289 47.7834 37.7274 48.0957 37.377C48.4464 36.9838 48.8039 36.5962 49.1583 36.2063C49.4876 35.844 49.8024 35.4669 50.1511 35.1245C50.4078 34.8736 50.5722 34.5473 50.9589 34.3922C51.2109 34.2905 51.1109 33.6924 51.6164 33.7484C51.7689 32.8447 52.7728 32.7816 53.2071 32.1185C54.0263 30.8682 55.4224 30.163 56.3333 28.9848C56.807 28.9446 56.7153 28.2893 57.0512 28.2375C57.5428 28.161 57.7017 27.7737 57.9735 27.4962C58.117 27.3501 58.2973 27.3981 58.5039 27.2552Z" fill="black"/>
<path fill-rule="evenodd" clip-rule="evenodd" d="M32.5986 33.9352C33.6367 32.7932 34.6892 31.6637 35.704 30.5017C36.0054 30.1566 36.5186 29.9307 36.481 29.3396C36.4768 29.2679 36.6041 29.1783 36.74 29.1747C37.0458 29.1672 37.1918 28.9826 37.2299 28.6875C37.243 28.5863 37.2701 28.4302 37.336 28.4022C37.8867 28.1633 38.3093 27.8221 38.421 27.1937C39.1496 27.1003 39.3937 26.426 39.8014 25.9805C40.6247 25.081 41.7281 24.4798 42.4272 23.4583C43.3015 23.2433 43.5088 22.1779 44.3638 21.9386C44.3656 21.231 45.034 21.112 45.4416 20.9715C46.0013 20.7783 46.0848 20.094 46.7384 20.0086C47.0432 19.9689 47.2868 19.4565 47.6167 19.1939C47.4832 19.523 47.5137 19.8374 47.5368 20.1506C47.1058 20.2978 46.6558 20.3914 46.36 20.8005C46.1955 21.0276 46.0245 21.2959 45.669 21.2571C45.7885 21.7285 45.3031 21.6326 45.1377 21.7056C44.9208 21.8012 44.9015 21.8637 44.8955 22.0569C44.8926 22.1439 44.7777 22.279 44.6885 22.3037C43.7124 22.5752 43.4871 23.7831 42.5075 24.0418C42.3209 24.4594 42.0692 24.7943 41.5524 24.7919C41.6985 25.3579 40.8895 25.2226 40.9467 25.4582C41.07 25.9649 40.1695 25.7184 40.4682 26.2323C40.2271 26.5153 40.0413 26.9094 39.735 27.061C38.6127 27.6165 38.0842 28.7459 37.2179 29.5419C37.0193 29.7247 37.2027 30.2693 36.6566 30.149C36.8347 30.6882 36.2893 30.5629 36.0971 30.7633C35.5841 31.2961 35.2301 31.9449 34.874 32.5817C34.7942 32.7242 34.742 32.9006 34.6322 33.0454C34.441 33.2976 34.0684 33.3239 33.9659 33.7334C33.8941 34.023 33.5618 34.2667 33.3091 34.4887C32.4383 35.2538 32.0833 36.424 31.1877 37.1654C31.0478 37.2811 31.0998 37.4314 31.0885 37.5751C31.0828 37.646 30.3655 38.4258 30.2545 38.5326C30.1459 38.6366 29.9772 38.744 29.9607 38.8668C29.8472 39.7208 29.1035 40.2415 28.8492 41.0201C28.7957 41.1836 28.6395 41.3215 28.5105 41.4505C28.1626 41.7982 27.9285 42.1882 27.9799 42.7024C27.8705 42.7132 27.7619 42.7236 27.7103 42.7287C27.067 43.578 26.8175 44.6124 26.142 45.4067C26.027 45.5417 25.8652 45.6409 25.8805 45.8704C25.8889 45.9978 25.7962 46.1313 25.7467 46.2688C25.9028 46.3865 26.0751 46.2986 26.2391 46.306C26.5053 46.1579 26.2174 45.6247 26.7758 45.6257C27.1837 45.6265 26.8566 45.0275 27.2383 44.8342C27.5103 44.6969 27.82 44.3605 27.8505 44.0837C27.8967 43.6628 28.2426 43.5859 28.4198 43.3115C28.3446 43.7526 27.9457 44.1194 28.2061 44.7283C28.4691 44.4562 28.3855 44.031 28.8153 43.9565C28.969 43.9703 28.7661 44.1928 28.8864 44.2669C29.3121 44.2038 29.2427 43.8015 29.3791 43.5309C29.5103 43.2701 29.8704 43.1585 29.8985 42.8314C29.9324 42.4369 30.5058 42.6356 30.5076 42.1816C30.4673 42.1058 30.4025 41.9831 30.3204 41.8284C30.4248 41.8108 30.5179 41.7953 30.6828 41.7678C30.6375 41.5732 30.5894 41.3632 30.5389 41.1466C30.914 41.1545 31.1286 41.1111 31.1103 40.7205C31.1073 40.6529 31.4083 40.514 31.4577 40.307C31.994 40.4547 31.3707 39.7135 31.8392 39.8091C31.9892 39.8016 32.1396 39.7945 32.2938 39.7874C32.4238 40.092 31.9351 40.1432 32.0312 40.4359C32.3448 40.4333 32.4658 40.1536 32.5864 39.9588C32.6587 39.841 32.8515 39.5292 32.3758 39.422C32.1425 39.3694 32.267 38.8999 32.5285 38.7324C32.7186 38.6107 32.9217 38.5781 32.941 38.2761C32.9574 38.0234 33.0598 37.7723 33.4086 37.7383C33.7357 37.7066 33.4578 37.2088 33.853 37.1158C33.9733 37.0874 34.1677 36.6809 34.239 36.4546C34.3356 36.1483 34.7126 36.0359 34.681 35.6876C35.0597 35.8209 34.9908 35.3093 35.3284 35.2556C35.6537 35.2043 35.2799 34.9228 35.2732 34.69C35.902 34.8591 35.6046 34.2036 35.8746 34.0259C36.1558 33.9753 36.2401 34.212 36.3936 34.3879C35.9324 35.1459 35.0632 35.6096 34.7375 36.4426C34.4152 37.2652 33.3632 37.6041 33.4095 38.6185C33.6578 38.6249 33.8278 38.3825 33.8696 38.2207C34.0489 37.5284 34.6964 37.1922 35.0113 36.631C35.7484 35.3145 36.8657 34.3279 37.8471 33.2255C38.0937 32.9487 37.9151 32.5675 38.2193 32.3431C37.761 32.6306 37.2973 32.8937 37.2575 33.5404C37.0225 33.6314 36.7703 33.729 36.5213 33.8256C36.3636 33.4701 36.6922 33.1918 36.6397 32.8881C37.2442 32.7212 37.8134 32.5243 38.016 31.837C38.0948 31.5694 38.6981 31.6649 38.4649 31.1843C39.4044 30.8528 39.7958 29.9357 40.4534 29.3047C41.1027 28.6809 41.6765 27.9788 42.2777 27.3174C42.5596 27.2518 42.6133 27.6034 42.9298 27.6118C43.9105 26.3538 45.4436 25.5582 46.2292 24.0283L45.2003 25.1602C44.977 24.9779 45.0715 24.7895 45.0301 24.6349C45.1363 24.6234 45.2422 24.6122 45.3169 24.604C45.4178 23.9585 46.1608 24.0395 46.3955 23.3841C46.4401 23.7784 46.3727 23.993 46.7316 24.0803C46.7989 23.8806 46.7133 23.6416 46.744 23.4243C47.1643 23.5366 47.594 23.5645 47.8684 23.1702C48.4262 22.3669 49.2862 21.8992 49.9836 21.2552C50.3998 20.8712 50.8419 20.4883 51.286 20.1229C51.7025 19.7805 52.1896 19.5242 52.5175 19.0755C53.2136 19.0511 53.314 18.1118 54.017 18.0976C54.3237 17.5133 55.059 17.4366 55.4206 16.9039C55.5782 16.6721 56.0328 16.7982 56.1167 16.4491C56.1854 16.1617 56.7795 16.4028 56.6103 15.9227C56.8704 15.8361 57.2193 16.0452 57.3978 15.6987C57.4168 15.477 57.2579 15.6001 57.1133 15.5369C57.0578 14.9944 56.7524 14.4554 56.848 13.8471C56.6566 13.78 56.5949 13.9685 56.4635 14.0059C56.2447 14.0102 56.1781 13.7873 55.9897 13.6933C55.8832 13.7515 55.7611 13.818 55.6368 13.8858C55.4671 13.8563 55.5855 13.7143 55.5188 13.6073C55.296 13.5402 55.0639 13.5363 54.897 13.7741C54.6721 14.0942 54.3146 14.2159 53.9796 14.2674C53.3782 14.36 52.8773 14.6234 52.5215 15.0752C52.3437 15.301 51.8409 15.1909 51.9442 15.6851C51.8024 15.6261 51.6743 15.5724 51.4864 15.494C51.1549 16.0059 50.5731 16.2204 50.0804 16.5624C49.4142 17.0243 48.8039 17.5565 48.0803 17.9505C47.7865 18.1111 47.5352 18.3826 47.2132 18.5583C46.9108 18.7235 46.7416 19.0555 46.3506 19.1876C46.0375 19.2932 45.869 19.8179 45.555 19.9299C45.1782 20.0648 44.9669 20.1767 44.9804 20.5953C44.9815 20.6322 44.678 20.6367 44.6249 20.7234C44.3807 21.1232 43.8626 21.1292 43.5923 21.4936C43.3338 21.842 43.0365 22.1549 42.5848 22.2867C42.2094 22.3961 42.3827 23.0485 41.8731 23.0604C41.1041 23.7401 40.2809 24.3588 39.6339 25.1722C39.4405 25.4151 39.2903 25.7583 38.8582 25.7349C38.7241 25.7278 38.7408 25.9663 38.6887 26.0931C38.5203 26.5031 38.2354 26.8733 37.8228 27.0266C37.5868 27.1144 37.3965 27.237 37.3458 27.4209C37.2955 27.6024 37.329 27.7084 37.0747 27.7443C36.8839 27.7713 36.7376 27.9736 36.7163 28.2346C36.6904 28.5458 36.452 28.8536 36.1954 28.8582C35.7674 28.866 36.1021 29.4166 35.701 29.399C35.309 29.3814 35.1291 29.7585 34.9778 30.0173C34.8623 30.2146 34.67 30.3706 34.6062 30.5807C34.4656 31.0401 34.0674 31.2805 33.7812 31.6108C33.4932 31.943 33.519 32.4405 33.1173 32.7168C32.954 32.8293 32.8132 32.8943 32.6286 32.8973C32.694 33.2483 32.3003 33.5817 32.5986 33.9352Z" fill="black"/>
<path fill-rule="evenodd" clip-rule="evenodd" d="M32.5983 33.9333C32.4057 34.3403 32.0001 34.1313 31.7379 34.2326C31.5029 34.3655 31.6652 34.6082 31.5525 34.742C31.1569 35.2147 30.8196 35.7293 30.4611 36.2234C29.8682 37.0413 29.2941 37.8484 28.7936 38.734C28.4634 39.3177 27.9858 39.8172 27.8463 40.5071C27.302 40.6403 27.1958 41.1999 26.9419 41.5618C26.5964 42.0533 26.0884 42.5531 26.2278 43.2754C25.8831 43.2733 25.6713 43.406 25.6263 43.7776C25.5684 44.2556 25.361 44.6643 24.9954 44.9931C24.8644 45.1114 24.7465 45.2325 24.7411 45.4571C24.7275 46.0023 24.3773 46.3831 23.9888 46.7526C24.0576 46.8784 24.1241 46.9998 24.1909 47.1215C24.203 47.5608 23.5369 47.2357 23.5944 47.5998C23.6506 47.9548 23.2432 48.0631 23.3002 48.3729C23.4564 48.3655 23.6068 48.3583 23.7615 48.3506C23.6768 47.9512 23.8892 47.8247 24.2429 47.8322C24.2881 47.7719 24.3755 47.7091 24.3697 47.6563C24.2989 46.9941 24.7698 46.5143 25.0368 46.0154C25.3672 45.3982 25.7868 44.8085 26.1282 44.1829C26.4469 43.5983 26.7115 42.9471 27.0833 42.437C27.5107 41.8516 27.8541 41.206 28.2974 40.6272C28.7167 40.0785 29.1501 39.5081 29.4211 38.8269C29.612 38.3472 30.0246 37.9352 30.3355 37.5064C30.7602 36.9196 30.9516 36.1549 31.5865 35.7261C31.8916 35.5198 31.7126 35.0991 32.0282 34.8744C32.292 34.6865 32.4751 34.3816 32.681 34.1187C32.7 34.0941 32.6286 33.9978 32.5983 33.9333Z" fill="black"/>
</svg>
