<svg width="66" height="44" viewBox="0 0 66 44" fill="none" xmlns="http://www.w3.org/2000/svg">
<path fill-rule="evenodd" clip-rule="evenodd" d="M60.2895 6.83731C59.9867 7.14216 59.8434 7.28671 59.6466 7.48429L59.3186 7.48429C58.8936 7.87322 58.4877 8.25346 58.0722 8.62251C57.7218 8.93399 57.3408 9.21399 57.0086 9.54287C56.6387 9.90944 56.2295 10.2296 55.872 10.6181C55.5498 10.969 55.3058 11.4378 54.8684 11.6557C54.3593 11.908 54.2044 12.4626 53.7762 12.7807C53.3806 13.0743 53.0401 13.4417 52.6764 13.776C52.6843 13.7839 52.7373 13.8365 52.8028 13.9023C51.8501 15.0401 50.8647 16.1597 50.2339 17.6215C50.1954 17.6359 50.0657 17.6856 49.9063 17.7465C49.9721 17.829 50.0322 17.9044 50.0943 17.9818C49.6942 18.7406 49.3343 19.5384 48.913 20.2819C48.394 21.1972 48.0954 22.2228 47.4306 23.069C47.0967 23.494 46.8822 24.0548 46.7625 24.5875C46.6896 24.9139 46.4783 24.8493 46.3077 24.9706C46.3744 25.0787 46.4407 25.1873 46.5301 25.3322C46.2128 25.9336 45.8864 26.5529 45.5501 27.1907C45.4184 27.0706 45.3389 26.9977 45.213 26.883C44.9359 27.0785 44.4898 27.0686 44.3746 27.7665C44.2549 27.4243 44.1808 27.2127 44.0896 26.9522C43.7906 27.2752 43.673 27.402 43.5247 27.5619C43.6021 27.689 43.675 27.8079 43.755 27.9388C43.6556 28.114 43.5421 28.3153 43.4323 28.5091C43.3399 28.4946 43.2252 28.5058 43.2053 28.4686C43.0616 28.1902 42.9365 27.9019 42.8064 27.619C42.2717 27.5209 42.3202 28.0448 42.094 28.2714C42.0406 28.218 41.9876 28.1645 41.9134 28.0908C41.7805 28.1579 41.6388 28.2291 41.4897 28.3041C41.2996 28.0312 41.1202 27.7739 40.8659 27.4086C40.7955 26.4738 40.8009 25.3894 40.5979 24.3456C40.4935 23.8063 40.5793 23.209 40.3651 22.7575C40.0996 22.1967 40.3535 21.6355 40.1589 21.1459C39.9447 20.6058 40.0856 20.0412 39.9257 19.5458C39.7501 19.002 39.864 18.4383 39.7057 17.9429C39.3288 16.7636 39.3831 15.4842 38.8264 14.3555C38.9631 13.853 38.5248 13.351 38.8264 12.8486C38.4979 12.3284 38.4151 11.7336 38.2958 11.1471C38.1276 10.3191 37.6919 9.56109 37.6811 8.68506C37.6778 8.43737 37.484 8.19216 37.3104 7.79163C37.0039 8.85074 36.7405 9.7595 36.4186 10.8712C36.3404 10.9342 36.0798 11.1429 35.8168 11.3533C35.9121 11.6826 35.9792 11.9142 36.0504 12.1614C35.6578 13.1787 35.6238 14.4118 34.7784 15.3044C35.2001 15.6482 34.8782 16.1394 34.9946 16.5064C34.3804 17.7109 34.3153 18.9995 33.9711 20.3701C33.955 20.3846 33.8166 20.5109 33.6849 20.631C33.4989 21.1185 33.7499 21.6346 33.4343 22.1317C33.2048 22.492 33.1556 23.0392 33.2032 23.4845C33.2612 24.0279 33.1146 24.5552 32.9087 24.9524C32.6531 25.4457 32.8246 25.8955 32.6917 26.3992C32.5972 26.4858 32.4589 26.6125 32.2671 26.7881C32.3711 27.9077 32.1524 29.0406 32.0629 30.214C31.9183 30.3242 31.7738 30.4339 31.5874 30.576L31.5874 31.7341C31.4192 31.5904 31.3418 31.5237 31.1802 31.3849C31.2362 31.9644 30.928 32.2958 30.4964 32.6043C30.3912 32.5443 30.2698 32.4751 30.1667 32.4167C29.5831 32.985 28.9837 33.5686 28.437 34.1013C28.1371 34.0155 27.9097 33.9501 27.616 33.866C27.5767 33.7844 27.503 33.6312 27.4292 33.4783L27.1646 33.4783C27.1248 33.5964 27.0809 33.7264 27.0142 33.9244C26.3473 33.9737 25.9054 33.5786 25.4995 33.1304C25.4104 32.6056 25.4104 32.6056 24.756 32.2481C24.8927 32.4917 24.9444 32.5841 25.0248 32.7278C24.9229 32.7539 24.8073 32.7841 24.6466 32.8251C24.6085 32.572 24.5775 32.3641 24.5385 32.1065C24.4267 32.1951 24.3521 32.2535 24.297 32.297C23.7271 31.8845 23.1559 31.4711 22.516 31.0076L22.516 30.5048C22.3838 30.617 22.3064 30.6825 22.2016 30.7715C22.1569 30.6398 22.115 30.5155 22.0595 30.3515L21.5811 30.3515C21.4345 30.2049 21.3285 30.0984 21.2216 29.9916C21.4262 29.7459 21.4664 29.3475 21.8764 29.2874C21.3732 28.9267 21.1553 29.391 20.7925 29.6867C20.773 29.463 20.7577 29.2887 20.742 29.1056C20.2776 28.8248 19.8779 28.4507 19.2396 28.4321C18.707 28.4168 18.4444 27.8883 18.2278 27.3585C18.1114 27.4446 18.0409 27.4968 17.9009 27.6012C17.8612 27.3991 17.8264 27.2197 17.7821 26.9911C17.7286 26.9986 17.6495 27.0097 17.4143 27.042C17.1177 26.8312 16.7433 26.4448 16.2872 26.2687C15.6377 26.0181 15.4207 25.3082 14.7514 25.0626C14.1644 24.8472 13.6421 24.4446 13.1496 23.9968C12.4782 23.3863 11.6618 22.9357 10.8529 22.379L10.8529 22.9986C10.9606 23.0491 11.1155 23.122 11.3267 23.2219C11.2215 23.3896 11.1292 23.5362 11.0194 23.7119C11.1872 23.9989 11.3359 24.3224 11.5488 24.5962C11.7269 24.8257 11.7472 25.2291 12.1651 25.2278C12.0524 25.6557 12.3697 25.886 12.6153 26.137C12.5395 26.2124 12.4865 26.2654 12.4451 26.3068C13.3418 27.2288 13.9188 28.3464 14.4188 29.5144C14.7178 29.7994 15.0164 30.0844 15.3122 30.3668L15.3122 30.7413C15.6688 31.24 15.9791 31.6736 16.3324 32.167C16.1029 32.2974 15.9401 32.3902 15.7301 32.5099C15.9144 32.8334 16.088 33.1374 16.2487 33.4191C16.5424 33.347 16.7959 33.2853 17.0469 33.2236C17.4954 33.8967 17.9072 34.5142 18.4336 35.3041C17.9958 35.2043 17.8802 34.9773 17.6827 34.8178C17.4089 35.2635 17.8918 35.3638 18.026 35.6073C17.9461 35.7179 17.8657 35.8272 17.6943 36.0621C17.9055 36.1168 18.1031 36.1681 18.3007 36.2195C18.2447 36.2771 18.1888 36.3346 18.1333 36.3922C18.2779 36.3073 18.4224 36.2224 18.5819 36.1292C18.731 36.4291 18.854 36.6768 18.975 36.9212C18.8801 37.0297 18.808 37.1121 18.7302 37.2007C18.7985 37.2749 18.8706 37.354 18.9642 37.4559C19.2715 37.3983 19.5983 37.3378 19.8962 37.2819C20.4309 38.1903 20.9391 39.0547 21.4478 39.9191C21.4167 39.9498 21.386 39.9809 21.3554 40.0111C21.268 39.9481 21.1806 39.8856 20.9644 39.7303C21.0692 40.3006 21.1557 40.7712 21.2564 41.3179C20.8231 41.4459 20.4226 41.5639 19.8411 41.735C19.8282 41.7512 19.6899 41.9272 19.5143 42.1504C18.7778 41.0147 17.855 40.1213 17.0104 39.1802C15.8415 37.8775 14.9489 36.391 13.8753 35.0295C12.7574 33.6121 11.8271 32.0456 10.8102 30.5474C10.2316 29.6942 9.62604 28.8583 9.06396 27.9939C8.27533 26.7803 7.46639 25.5758 6.76763 24.3116C6.45988 23.7545 5.96781 23.3412 5.7516 22.6996C5.56603 22.1487 5.0955 21.6926 4.7455 21.1985C3.85207 19.9364 2.99674 18.6495 1.96124 17.4893C1.28651 16.7342 0.710768 15.8897 -1.26312e-06 14.9677L-1.32209e-06 13.6186C0.327218 13.6083 0.679703 13.4811 1.03799 13.8406C1.07112 13.5436 1.10177 13.2661 1.13077 13.0039C2.05609 12.4638 3.05266 12.3706 4.2145 12.5148C4.29029 12.6208 4.44189 12.8329 4.72024 13.221C4.74343 13.279 4.85899 13.5668 4.99734 13.9127C5.35148 13.7851 5.6174 13.6894 5.86799 13.5991C6.27349 13.899 6.70053 14.172 7.07456 14.5042C7.39349 14.7871 7.99118 14.7684 7.9129 15.4755C8.07982 15.3094 8.13284 15.2559 8.23225 15.157C8.43355 15.6805 9.25905 15.5492 9.26899 16.2658C9.46698 16.2894 9.64467 16.3105 9.85509 16.3354C9.87663 16.4286 9.90024 16.5309 9.92633 16.6444C11.2692 17.1551 12.3295 18.1201 13.4661 19.0165C13.5489 19.0165 13.6877 18.9742 13.7705 19.0239C14.1048 19.2252 14.5857 19.3888 14.7079 19.6896C14.9059 20.1783 15.6365 20.1522 15.5876 20.7984C15.861 20.8141 16.1145 20.8286 16.3862 20.8439C16.4322 20.9694 16.4798 21.0999 16.5382 21.2594C16.6704 21.2664 16.8153 21.2739 17.039 21.2863C17.2933 21.5543 17.5891 21.8658 17.9391 22.2344C17.6856 22.3541 17.536 22.4245 17.3285 22.5219C17.6122 22.7116 17.8682 22.8826 18.1246 23.0537C18.2373 22.9837 18.3491 22.9137 18.5276 22.8015C18.6349 22.9812 18.7041 23.1755 18.8387 23.2981C18.9563 23.4054 19.1477 23.4319 19.3038 23.4932C19.3995 23.4273 19.5151 23.3474 19.7118 23.2119C19.8224 23.3996 19.9164 23.5603 20.0755 23.8303C20.0556 23.9003 19.9906 24.1306 19.9164 24.3924L20.3741 24.3924C20.5796 24.7772 20.72 25.0477 21.2166 25.1533C22.0608 25.3326 22.8005 25.8599 23.573 26.2613C23.6915 26.3226 23.7267 26.5438 23.7992 26.6896C23.8915 26.6129 23.9682 26.5496 23.9603 26.5558C24.3302 26.8722 24.7175 27.1191 24.9888 27.4587C25.265 27.8038 25.427 28.2407 25.6921 28.7378C25.9389 28.8384 26.0035 28.6007 25.8789 27.9885C26.1957 28.3836 26.3022 28.5162 26.431 28.6773C26.3602 28.819 26.2873 28.9648 26.1485 29.2423C26.4612 29.1205 26.6712 29.0389 26.9082 28.9465C26.9819 29.002 27.0676 29.0654 27.2068 29.1694C27.3054 29.0638 27.5245 28.93 27.5117 28.8248C27.4487 28.3103 27.6951 27.9222 27.8977 27.5449C27.6806 26.7181 28.1371 25.9933 28.2233 25.2258C28.3173 24.3808 28.4564 23.5267 28.7124 22.7199C28.9568 21.947 29.2281 21.1633 29.3002 20.3788C29.3764 19.5458 29.6763 18.7841 29.8092 17.9748C29.9447 17.1497 30.1994 16.3366 30.479 15.5451C30.7491 14.7825 30.8282 13.9786 31.1123 13.2119C31.401 12.4328 31.6388 11.6048 31.7908 10.7875C31.9415 9.97737 32.3139 9.26163 32.5077 8.47796C32.7008 7.69719 32.9315 6.92429 33.1841 6.1605C33.4463 5.36772 33.7611 4.59234 34.0407 3.80494C34.3095 3.0482 34.563 2.28565 34.8451 1.46139C35.0443 1.26216 35.3073 0.998728 35.567 0.739024C35.6391 0.803225 35.7215 0.875712 35.7953 0.941569C36.2786 0.976363 36.2741 0.560919 36.4008 0.335593C36.8863 0.246126 37.3407 0.162043 37.8319 0.0713332C37.8733 0.109854 37.9549 0.185236 38.0303 0.255236C38.6209 -0.272455 39.1246 0.12932 39.5666 0.463579C40.0127 0.801569 40.3755 1.24891 40.8025 1.67595C40.955 2.76406 41.8372 3.70843 41.5034 4.94979C41.6703 4.98417 41.7734 5.0053 41.9462 5.0405C42.0559 5.7082 42.1715 6.41441 42.3024 7.21382C42.3285 7.22169 42.4569 7.26021 42.5521 7.28879C42.7261 7.91589 42.9104 8.52104 43.0562 9.1353C43.1134 9.37678 43.1825 9.69612 43.0749 9.88003C42.8015 10.3477 42.8035 10.7378 43.0749 11.2038C43.1995 11.418 43.1482 11.7336 43.3308 11.9941L43.3308 11.1081C43.4667 11.1723 43.5657 11.2013 43.5636 11.2212C43.5098 11.8127 43.7347 12.3582 43.912 12.8892C44.0615 13.3365 44.1406 13.8394 43.9579 14.1645C43.721 14.5862 43.8995 14.9499 43.7127 15.5053C43.9451 15.338 44.0126 15.2895 44.0809 15.2402C44.5113 15.91 44.631 16.1896 44.3713 16.7156C44.1634 17.1364 44.3253 17.4868 44.4202 17.8795C44.4541 17.5796 44.4881 17.2797 44.5465 16.7641C44.7018 17.4947 44.8108 18.0079 44.9644 18.7319C45.7696 16.9463 46.893 15.6076 47.8568 14.1633C48.8385 12.692 49.4622 12.0078 50.615 11.1015C50.8241 10.9367 50.926 10.6405 51.1257 10.4574C51.4719 10.141 51.8841 9.89328 52.2163 9.56399C52.5211 9.26162 52.7129 8.83956 53.0318 8.55707C53.8764 7.81027 54.8415 7.20719 55.6409 6.39991C55.7192 6.3208 55.925 6.36719 56.0882 6.35435C56.1872 6.19447 56.2551 5.96293 56.4096 5.85524C57.1647 5.32879 57.9132 4.7808 58.7221 4.34879C59.365 4.00541 59.9792 3.61027 60.6614 3.31246C61.3353 3.01796 62.0295 2.97157 62.698 2.78186C63.3898 2.58594 64.1337 2.77524 64.856 3.11115C64.1689 3.90808 65.0391 4.65902 64.9911 5.4634C65.0205 5.08482 65.0499 4.70583 65.0793 4.32683C65.1393 4.33056 65.1998 4.3347 65.2599 4.33843L65.2599 5.08606C65.2599 5.31222 65.2562 5.53837 65.2607 5.76411C65.2665 6.01719 65.1911 6.29678 65.4744 6.46618C65.1414 6.60618 65.5324 6.87831 65.3846 7.01956C65.1199 7.27346 65.6803 7.39399 65.4541 7.65991C65.3295 7.80695 65.2922 8.04843 65.2673 8.25346C65.2367 8.50695 65.2599 8.76666 65.2599 8.99985C65.0718 9.06571 64.9409 9.11168 64.7338 9.18417C64.9331 9.25293 65.059 9.29642 65.2346 9.35648C65.245 9.47618 65.2574 9.61742 65.2773 9.84855C65.0606 10.0656 64.8038 10.3228 64.5731 10.5539C64.5839 10.754 64.5918 10.8985 64.5988 11.0307C64.7587 11.0891 64.8888 11.1367 65.0689 11.2022C64.878 11.2937 64.7318 11.3637 64.5856 11.4341L64.5856 11.6818C64.7305 11.7501 64.8854 11.8235 65.0565 11.9038C64.8453 12.5537 64.5429 13.1593 64.5599 13.8692C64.5673 14.1906 64.3325 14.5178 64.1937 14.8778C64.1896 14.872 64.2306 14.925 64.2931 15.0062C64.1411 15.5749 63.9837 16.1643 63.7895 16.8904C63.5902 16.6456 63.4573 16.482 63.3334 16.33C63.2829 16.6903 63.3106 16.9289 63.4527 17.2996C63.4312 17.3282 63.4125 17.3593 63.3881 17.3858C63.3363 17.4404 63.2821 17.4926 63.2195 17.5548C63.2746 17.6053 63.3305 17.6542 63.3835 17.7059C63.4092 17.7312 63.4299 17.7619 63.4544 17.7925C63.3575 18.0899 63.2597 18.3894 63.1313 18.7829L62.138 18.7829C62.1132 18.8338 62.0888 18.8848 62.0643 18.9361C62.2064 19.0289 62.3489 19.1213 62.551 19.2534C62.6326 19.2087 62.7767 19.1291 63.0514 18.9784C62.9221 19.5011 62.8169 19.9277 62.7142 20.3419C62.5775 20.3722 62.4748 20.3945 62.3679 20.4181C62.754 20.9877 62.4417 21.4064 62.1124 21.8322C62.0076 21.9681 61.9272 22.1333 61.8759 22.2974C61.7603 22.6652 61.67 23.0409 61.5495 23.4899C61.5362 23.4936 61.436 23.523 61.2289 23.5843C61.243 23.7939 61.2599 24.0453 61.2873 24.445C61.3411 24.3808 61.2504 24.4454 61.2206 24.5307C60.9783 25.2216 60.8184 25.9403 60.5185 26.6121C60.4904 26.6755 60.5131 26.7591 60.4957 26.8291C60.3814 27.2848 59.7953 27.4894 59.8413 28.0241C59.8819 28.4963 59.5083 28.7912 59.3803 29.1913C59.2428 29.6217 59.0651 30.0392 58.8978 30.4592C58.8464 30.5888 58.7449 30.7023 58.7155 30.8345C58.6832 30.9778 58.708 31.1339 58.708 31.353C58.5689 31.4583 58.3908 31.5937 58.2586 31.6935L58.2586 32.4598C57.7835 32.9125 57.2956 33.3628 57.3495 34.1125C57.3544 34.1791 57.342 34.2748 57.2989 34.3129C56.5687 34.9574 56.5687 35.9726 56.0493 36.7414C55.5485 37.4828 55.2963 38.3874 54.8564 39.1765C54.274 40.2219 53.6167 41.2251 52.9859 42.2432C52.9283 42.3368 52.8425 42.4296 52.7473 42.481C51.8572 42.9623 50.9617 43.4341 50.1523 43.8644C49.5969 43.7567 49.1404 43.6681 48.5535 43.5542C48.4421 43.3728 48.2594 43.0745 48.0817 42.785C48.3153 42.1803 48.5125 41.583 48.7755 41.0159C49.0398 40.446 49.3314 39.8802 49.6789 39.3583C50.4389 38.2151 50.9236 36.9311 51.5933 35.7448C51.9897 35.0428 52.1769 34.221 52.7841 33.639C53.135 32.3111 53.8341 31.1364 54.3871 29.8967C54.6261 29.3607 54.9483 28.8546 55.1033 28.2722C55.2453 27.7354 55.4719 27.2214 55.6591 26.6966C56.2456 25.0564 56.8392 23.4194 57.4133 21.7751C57.7123 20.9189 57.9927 20.0549 58.2516 19.1855C58.5121 18.3099 58.6849 17.3916 58.9785 16.5462C59.493 15.0646 59.5795 13.5064 60.0343 12.0198C60.2746 11.2349 60.2431 10.3601 60.2812 9.5234C60.3189 8.70825 60.2895 7.88979 60.2895 6.83731Z" fill="#559268"/>
</svg>
